<svg preserveAspectRatio="none" width="100%" height="100%" overflow="visible" style="display: block;" viewBox="0 0 398 308.601" fill="none" xmlns="http://www.w3.org/2000/svg">
<path id="Rectangle 180" d="M397.191 0.5C396.995 0.894372 396.721 1.44692 396.373 2.14941C395.604 3.70299 394.475 5.99094 393.039 8.92969C390.167 14.8073 386.064 23.2879 381.142 33.7002C371.296 54.5245 358.168 83.078 345.04 113.992C331.912 144.905 318.781 178.186 308.931 208.463C299.086 238.724 292.5 266.039 292.5 285C292.5 289.321 289.831 293.015 284.954 296.124C280.077 299.234 273.072 301.701 264.611 303.566C247.699 307.296 225.119 308.593 202.515 307.938C179.913 307.282 157.323 304.675 140.397 300.615C131.931 298.584 124.909 296.197 120.017 293.523C117.57 292.187 115.681 290.792 114.407 289.354C113.137 287.921 112.5 286.469 112.5 285C112.5 266.158 105.474 238.901 94.9727 208.664C84.4657 178.41 70.4581 145.113 56.4551 114.169C42.4514 83.2234 28.4483 54.6232 17.9463 33.7598C12.6952 23.3279 8.31924 14.8298 5.25586 8.93945C3.72416 5.99426 2.52091 3.70071 1.7002 2.14355C1.33195 1.44487 1.04022 0.894676 0.831055 0.5H397.191Z" fill="url(#paint0_linear_0_864)" stroke="url(#paint1_linear_0_864)"/>
<defs>
<linearGradient id="paint0_linear_0_864" x1="17.9999" y1="-47.3357" x2="17.9999" y2="237.665" gradientUnits="userSpaceOnUse">
<stop stop-color="#F4129A" stop-opacity="0.25"/>
<stop offset="1" stop-color="#F4129A" stop-opacity="0"/>
</linearGradient>
<linearGradient id="paint1_linear_0_864" x1="17.9999" y1="-47.3357" x2="17.9999" y2="237.665" gradientUnits="userSpaceOnUse">
<stop stop-color="#F4129A" stop-opacity="0.3"/>
<stop offset="1" stop-color="#F4129A" stop-opacity="0.2"/>
</linearGradient>
</defs>
</svg>
