<svg preserveAspectRatio="none" width="100%" height="100%" overflow="visible" style="display: block;" viewBox="0 0 7 17.5479" fill="none" xmlns="http://www.w3.org/2000/svg">
<g id="Subtract">
<mask id="path-1-inside-1_0_861" fill="white">
<path d="M0 0C4.0077 0.909663 7 4.49144 7 8.77441C7 13.0573 4.00759 16.6381 0 17.5479V15.4824C2.89119 14.6217 5 11.9452 5 8.77441C5 5.60351 2.89133 2.92608 0 2.06543V0Z"/>
</mask>
<path d="M0 0L0.442697 -1.95039L-2 -2.50483V0H0ZM0 17.5479H-2V20.0527L0.442744 19.4982L0 17.5479ZM0 15.4824L-0.570666 13.5656L-2 13.9911V15.4824H0ZM0 2.06543H-2V3.55682L-0.570589 3.98231L0 2.06543ZM0 0L-0.442697 1.95039C2.67493 2.65803 5 5.44657 5 8.77441H7H9C9 3.5363 5.34047 -0.838699 0.442697 -1.95039L0 0ZM7 8.77441H5C5 12.1019 2.67512 14.8897 -0.442744 15.5975L0 17.5479L0.442744 19.4982C5.34007 18.3865 9 14.0128 9 8.77441H7ZM0 17.5479H2V15.4824H0H-2V17.5479H0ZM0 15.4824L0.570666 17.3993C4.2856 16.2933 7 12.855 7 8.77441H5H3C3 11.0354 1.49678 12.9501 -0.570666 13.5656L0 15.4824ZM5 8.77441H7C7 4.69408 4.28611 1.25453 0.570589 0.14855L0 2.06543L-0.570589 3.98231C1.49654 4.59762 3 6.51293 3 8.77441H5ZM0 2.06543H2V0H0H-2V2.06543H0Z" fill="url(#paint0_linear_0_861)" mask="url(#path-1-inside-1_0_861)"/>
</g>
<defs>
<linearGradient id="paint0_linear_0_861" x1="7" y1="8.77393" x2="0" y2="8.77393" gradientUnits="userSpaceOnUse">
<stop stop-color="#F4129A"/>
<stop offset="0.649038" stop-color="#F4129A"/>
<stop offset="1" stop-color="#FDDBF0"/>
</linearGradient>
</defs>
</svg>
