<svg preserveAspectRatio="none" width="100%" height="100%" overflow="visible" style="display: block;" viewBox="0 0 24 24" fill="none" xmlns="http://www.w3.org/2000/svg">
<path id="Union" d="M12 0C14.9768 0 17.6986 1.08616 19.7959 2.88086L22.3848 0.292969L23.7988 1.70703L21.2031 4.30176C22.9481 6.38557 24 9.06949 24 12C24 18.6274 18.6274 24 12 24C9.06949 24 6.38557 22.9481 4.30176 21.2031L1.70703 23.7988L0.292969 22.3848L2.88086 19.7959C1.08616 17.6986 0 14.9768 0 12C0 5.37258 5.37258 0 12 0ZM5.72266 19.7822C7.43901 21.1684 9.62196 22 12 22C17.5228 22 22 17.5228 22 12C22 9.62196 21.1684 7.43901 19.7822 5.72266L5.72266 19.7822ZM12 2C6.47715 2 2 6.47715 2 12C2 14.4245 2.86251 16.6478 4.29785 18.3789L18.3789 4.29785C16.6478 2.86251 14.4245 2 12 2Z" fill="var(--fill-0, #F4129A)"/>
</svg>
