<svg preserveAspectRatio="none" width="100%" height="100%" overflow="visible" style="display: block;" viewBox="0 0 20 24.4274" fill="none" xmlns="http://www.w3.org/2000/svg">
<path id="Rectangle 252 (Stroke)" d="M2 2V17.1045C2.00003 17.8317 2.39507 18.5012 3.03125 18.8535L9.03125 22.1768C9.63408 22.5106 10.3659 22.5106 10.9688 22.1768L16.9688 18.8535C17.6049 18.5012 18 17.8317 18 17.1045V2H2ZM20 17.1045L19.9912 17.376C19.8997 18.724 19.1311 19.9428 17.9385 20.6035L11.9385 23.9268L11.709 24.0439C10.6274 24.5552 9.37256 24.5552 8.29102 24.0439L8.06152 23.9268L2.06152 20.6035C0.868935 19.9428 0.100275 18.724 0.00878906 17.376L0 17.1045V2C0 0.895431 0.895431 0 2 0H18C19.1046 0 20 0.895431 20 2V17.1045Z" fill="var(--fill-0, #F4129A)"/>
</svg>
