<svg preserveAspectRatio="none" width="100%" height="100%" overflow="visible" style="display: block;" viewBox="0 0 20 13.3711" fill="none" xmlns="http://www.w3.org/2000/svg">
<path id="Ellipse 15019 (Stroke)" d="M18 9.7998C17.9999 5.51314 14.4395 2 10 2C5.56049 2 2.00011 5.51314 2 9.7998C2 10.7992 2.19214 11.7529 2.54199 12.6289L0.68457 13.3711C0.242233 12.2636 0 11.0582 0 9.7998C0.000107909 4.36644 4.49852 0 10 0C15.5015 0 19.9999 4.36644 20 9.7998C20 11.0582 19.7578 12.2636 19.3154 13.3711L17.458 12.6289C17.8079 11.7529 18 10.7992 18 9.7998Z" fill="url(#paint0_linear_0_835)"/>
<defs>
<linearGradient id="paint0_linear_0_835" x1="10" y1="1" x2="10" y2="13" gradientUnits="userSpaceOnUse">
<stop stop-color="#F4129A"/>
<stop offset="0.649038" stop-color="#F4129A"/>
<stop offset="1" stop-color="#FDDBF0"/>
</linearGradient>
</defs>
</svg>
