<svg preserveAspectRatio="none" width="100%" height="100%" overflow="visible" style="display: block;" viewBox="0 0 98.6561 18.4519" fill="none" xmlns="http://www.w3.org/2000/svg">
<g id="Group 3">
<path id="Vector" d="M85.7674 18.1956C85.6118 18.1956 85.4735 18.1443 85.3524 18.0418C85.2487 17.9222 85.1968 17.7855 85.1968 17.6318C85.1968 17.5805 85.2055 17.5207 85.2228 17.4524C85.2573 17.384 85.3092 17.2986 85.3784 17.1961L89.787 11.353L85.6896 5.86873C85.6377 5.78331 85.5945 5.70642 85.5599 5.63808C85.5426 5.56974 85.534 5.5014 85.534 5.43306C85.534 5.2793 85.5858 5.15116 85.6896 5.04865C85.8106 4.92906 85.9489 4.86926 86.1045 4.86926H88.3607C88.5681 4.86926 88.7237 4.92051 88.8275 5.02302C88.9312 5.12553 89.009 5.2195 89.0609 5.30493L91.9913 9.14906L94.9217 5.30493C94.9909 5.2195 95.0687 5.12553 95.1551 5.02302C95.2589 4.92051 95.4145 4.86926 95.6219 4.86926L97.7744 4.86926C97.93 4.86926 98.0596 4.92906 98.1634 5.04865C98.2844 5.15116 98.3449 5.27076 98.3449 5.40744C98.3449 5.49286 98.3276 5.56974 98.293 5.63808C98.2758 5.70642 98.2412 5.78331 98.1893 5.86873L94.04 11.4043L98.4746 17.1961C98.5437 17.2986 98.5869 17.384 98.6042 17.4524C98.6388 17.5207 98.6561 17.5805 98.6561 17.6318C98.6561 17.7855 98.5956 17.9222 98.4746 18.0418C98.3708 18.1443 98.2412 18.1956 98.0856 18.1956H95.7257C95.5355 18.1956 95.3885 18.1529 95.2848 18.0674C95.1811 17.9649 95.0946 17.871 95.0255 17.7855L91.9135 13.7108L88.7497 17.7855C88.6805 17.871 88.5941 17.9649 88.4903 18.0674C88.4039 18.1529 88.2569 18.1956 88.0495 18.1956H85.7674Z" fill="var(--fill-0, white)"/>
<path id="Vector_2" d="M78.1161 18.4519C76.733 18.4519 75.566 18.2127 74.6151 17.7343C73.6815 17.2559 72.964 16.5811 72.4627 15.7097C71.9786 14.8384 71.7019 13.8218 71.6328 12.6601C71.6155 12.3525 71.6069 11.9766 71.6069 11.5324C71.6069 11.0882 71.6155 10.7124 71.6328 10.4048C71.7019 9.22596 71.9872 8.2094 72.4886 7.35515C73.0072 6.48382 73.7334 5.80896 74.667 5.33058C75.6178 4.8522 76.7675 4.61301 78.1161 4.61301C79.4646 4.61301 80.6056 4.8522 81.5392 5.33058C82.4901 5.80896 83.2162 6.48382 83.7176 7.35515C84.2363 8.2094 84.5302 9.22596 84.5993 10.4048C84.6166 10.7124 84.6253 11.0882 84.6253 11.5324C84.6253 11.9766 84.6166 12.3525 84.5993 12.6601C84.5302 13.8218 84.2449 14.8384 83.7435 15.7097C83.2595 16.5811 82.542 17.2559 81.5911 17.7343C80.6575 18.2127 79.4992 18.4519 78.1161 18.4519ZM78.1161 15.9147C79.0324 15.9147 79.7412 15.6328 80.2426 15.069C80.7439 14.4881 81.0206 13.6424 81.0724 12.5319C81.0897 12.2756 81.0984 11.9425 81.0984 11.5324C81.0984 11.1224 81.0897 10.7892 81.0724 10.533C81.0206 9.43952 80.7439 8.60236 80.2426 8.02147C79.7412 7.44058 79.0324 7.15013 78.1161 7.15013C77.1998 7.15013 76.4909 7.44058 75.9895 8.02147C75.4882 8.60236 75.2116 9.43952 75.1597 10.533C75.1424 10.7892 75.1338 11.1224 75.1338 11.5324C75.1338 11.9425 75.1424 12.2756 75.1597 12.5319C75.2116 13.6424 75.4882 14.4881 75.9895 15.069C76.4909 15.6328 77.1998 15.9147 78.1161 15.9147Z" fill="var(--fill-0, white)"/>
<path id="Vector_3" d="M64.4711 18.4518C63.4683 18.4518 62.6298 18.281 61.9556 17.9393C61.2986 17.5976 60.754 17.1619 60.3218 16.6323V17.5805C60.3218 17.7513 60.2613 17.8966 60.1402 18.0162C60.0365 18.1358 59.8896 18.1956 59.6994 18.1956H57.6507C57.4778 18.1956 57.3308 18.1358 57.2098 18.0162C57.0888 17.8966 57.0283 17.7513 57.0283 17.5805V0.615067C57.0283 0.444217 57.0888 0.298995 57.2098 0.1794C57.3308 0.0598048 57.4778 6.90966e-06 57.6507 6.90966e-06L59.855 6.90966e-06C60.0452 6.90966e-06 60.1921 0.0598048 60.2958 0.1794C60.4169 0.298995 60.4774 0.444217 60.4774 0.615067V6.30438C60.9096 5.80891 61.4455 5.40742 62.0852 5.09989C62.7422 4.77527 63.5375 4.61296 64.4711 4.61296C65.3874 4.61296 66.1827 4.76673 66.8569 5.07426C67.5312 5.38179 68.0931 5.81746 68.5426 6.38126C69.0094 6.92798 69.3638 7.56867 69.6058 8.30333C69.8479 9.03798 69.9775 9.83244 69.9948 10.6867C70.0121 10.9942 70.0208 11.2761 70.0208 11.5324C70.0208 11.7716 70.0121 12.0449 69.9948 12.3525C69.9602 13.2409 69.8219 14.061 69.5799 14.8127C69.3378 15.5474 68.9921 16.1881 68.5426 16.7348C68.0931 17.2815 67.5312 17.7086 66.8569 18.0162C66.1827 18.3066 65.3874 18.4518 64.4711 18.4518ZM63.5115 15.7097C64.255 15.7097 64.8341 15.5559 65.2491 15.2484C65.664 14.9238 65.9579 14.5052 66.1308 13.9926C66.321 13.4801 66.4333 12.9163 66.4679 12.3012C66.5025 11.7887 66.5025 11.2761 66.4679 10.7636C66.4333 10.1485 66.321 9.58471 66.1308 9.07215C65.9579 8.5596 65.664 8.14956 65.2491 7.84203C64.8341 7.51742 64.255 7.35511 63.5115 7.35511C62.82 7.35511 62.2581 7.50887 61.8259 7.8164C61.3937 8.12394 61.0652 8.51689 60.8404 8.99527C60.6157 9.45657 60.4947 9.94349 60.4774 10.456C60.4601 10.7636 60.4514 11.0967 60.4514 11.4555C60.4514 11.7972 60.4601 12.1218 60.4774 12.4294C60.512 12.959 60.6243 13.4801 60.8145 13.9926C61.022 14.4881 61.3418 14.8981 61.774 15.2228C62.2235 15.5474 62.8027 15.7097 63.5115 15.7097Z" fill="var(--fill-0, white)"/>
<path id="Vector_4" d="M46.9915 18.1956C46.8186 18.1956 46.6717 18.1358 46.5507 18.0162C46.4296 17.8966 46.3691 17.7514 46.3691 17.5805V5.50995C46.3691 5.32201 46.4296 5.16825 46.5507 5.04865C46.6717 4.92906 46.8186 4.86926 46.9915 4.86926H49.0921C49.265 4.86926 49.4119 4.92906 49.533 5.04865C49.6713 5.16825 49.7404 5.32201 49.7404 5.50995V6.56068C50.1381 6.01395 50.6481 5.59537 51.2705 5.30493C51.9102 5.01448 52.6449 4.86926 53.4748 4.86926H54.5381C54.7282 4.86926 54.8752 4.92906 54.9789 5.04865C55.0999 5.16825 55.1604 5.31347 55.1604 5.48432V7.3295C55.1604 7.50035 55.0999 7.64557 54.9789 7.76517C54.8752 7.88476 54.7282 7.94456 54.5381 7.94456H52.5153C51.6854 7.94456 51.0371 8.17521 50.5703 8.63651C50.1208 9.0978 49.896 9.72995 49.896 10.5329V17.5805C49.896 17.7514 49.8355 17.8966 49.7145 18.0162C49.5935 18.1358 49.4379 18.1956 49.2477 18.1956H46.9915Z" fill="var(--fill-0, white)"/>
<path id="Vector_5" d="M36.0336 18.4519C35.1345 18.4519 34.322 18.281 33.5958 17.9393C32.8697 17.5805 32.2905 17.1107 31.8583 16.5298C31.4434 15.9318 31.2359 15.2655 31.2359 14.5309C31.2359 13.3349 31.72 12.3867 32.6882 11.6862C33.6736 10.9686 34.9703 10.4903 36.5781 10.2511L40.131 9.73851V9.20033C40.131 8.48276 39.9494 7.9275 39.5864 7.53454C39.2233 7.14159 38.6009 6.94511 37.7192 6.94511C37.0968 6.94511 36.5868 7.07325 36.1892 7.32952C35.8088 7.56871 35.5235 7.89333 35.3334 8.30337C35.195 8.52548 34.9962 8.63653 34.7369 8.63653H32.6882C32.498 8.63653 32.3511 8.58527 32.2473 8.48276C32.1609 8.38025 32.1177 8.24357 32.1177 8.07272C32.1349 7.79936 32.2473 7.4662 32.4548 7.07325C32.6622 6.68029 32.9907 6.30442 33.4402 5.94564C33.8898 5.56977 34.4689 5.25369 35.1778 4.99742C35.8866 4.74114 36.7424 4.61301 37.7451 4.61301C38.8343 4.61301 39.7506 4.74969 40.494 5.02305C41.2547 5.27932 41.8598 5.62956 42.3094 6.07377C42.7589 6.51798 43.0873 7.03908 43.2948 7.63705C43.5023 8.23503 43.606 8.86718 43.606 9.53349V17.5805C43.606 17.7514 43.5455 17.8966 43.4245 18.0162C43.3035 18.1358 43.1565 18.1956 42.9836 18.1956H40.883C40.6929 18.1956 40.5373 18.1358 40.4162 18.0162C40.3125 17.8966 40.2606 17.7514 40.2606 17.5805V16.5811C40.0359 16.9057 39.7333 17.2132 39.353 17.5037C38.9726 17.777 38.5058 18.0077 37.9526 18.1956C37.4166 18.3664 36.777 18.4519 36.0336 18.4519ZM36.9153 16.0173C37.5204 16.0173 38.065 15.8891 38.5491 15.6328C39.0504 15.3766 39.4394 14.9836 39.716 14.454C40.01 13.9073 40.1569 13.2239 40.1569 12.4038V11.8656L37.5636 12.2756C36.5436 12.4294 35.7829 12.6771 35.2815 13.0188C34.7801 13.3605 34.5294 13.7791 34.5294 14.2746C34.5294 14.6505 34.6418 14.9751 34.8666 15.2484C35.1086 15.5047 35.4112 15.7012 35.7742 15.8379C36.1373 15.9575 36.5176 16.0173 36.9153 16.0173Z" fill="var(--fill-0, white)"/>
<path id="Vector_6" d="M23.619 18.4519C21.6999 18.4519 20.1785 17.9052 19.0548 16.8117C17.931 15.7183 17.3259 14.1635 17.2394 12.1475C17.2222 11.9767 17.2135 11.7631 17.2135 11.5068C17.2135 11.2335 17.2222 11.0199 17.2394 10.8661C17.3086 9.58475 17.6025 8.47422 18.1212 7.53454C18.6571 6.59487 19.3919 5.8773 20.3255 5.38183C21.2591 4.86928 22.3569 4.61301 23.619 4.61301C25.0194 4.61301 26.195 4.90345 27.1459 5.48434C28.0968 6.04815 28.8142 6.8426 29.2983 7.8677C29.7824 8.87572 30.0245 10.046 30.0245 11.3787V11.9169C30.0245 12.0877 29.9639 12.2329 29.8429 12.3525C29.7219 12.4721 29.5663 12.5319 29.3761 12.5319L20.7663 12.5319C20.7663 12.5319 20.7663 12.5575 20.7663 12.6088C20.7663 12.6601 20.7663 12.7028 20.7663 12.7369C20.7836 13.3349 20.896 13.8902 21.1035 14.4027C21.3282 14.8982 21.6481 15.2997 22.063 15.6072C22.4952 15.9147 23.0052 16.0685 23.593 16.0685C24.0771 16.0685 24.4834 16.0002 24.8119 15.8635C25.1404 15.7097 25.4084 15.5389 25.6158 15.3509C25.8233 15.163 25.9702 15.0092 26.0567 14.8896C26.2123 14.6846 26.3333 14.565 26.4198 14.5309C26.5235 14.4796 26.6704 14.454 26.8606 14.454H29.0909C29.2637 14.454 29.4021 14.5052 29.5058 14.6077C29.6268 14.7103 29.6787 14.8384 29.6614 14.9922C29.6441 15.2655 29.4971 15.5987 29.2205 15.9916C28.9612 16.3846 28.5808 16.769 28.0795 17.1449C27.5781 17.5207 26.9471 17.8368 26.1864 18.0931C25.4429 18.3323 24.5871 18.4519 23.619 18.4519ZM20.7663 10.3792H26.4976V10.3023C26.4976 9.636 26.3852 9.05511 26.1604 8.55964C25.9357 8.06418 25.6072 7.67122 25.175 7.38078C24.7427 7.09033 24.2241 6.94511 23.619 6.94511C23.0139 6.94511 22.4952 7.09033 22.063 7.38078C21.6308 7.67122 21.3023 8.06418 21.0775 8.55964C20.8701 9.05511 20.7663 9.636 20.7663 10.3023V10.3792Z" fill="var(--fill-0, white)"/>
<path id="Vector_7" d="M7.67619 18.4518C6.08563 18.4518 4.72847 18.1785 3.6047 17.6317C2.49822 17.085 1.63379 16.2991 1.01139 15.274C0.406288 14.2318 0.0778022 12.9932 0.0259361 11.558C0.00864732 10.8234 2.86102e-06 10.0375 2.86102e-06 9.20029C2.86102e-06 8.34604 0.00864732 7.54304 0.0259361 6.7913C0.0778022 5.37324 0.406288 4.16021 1.01139 3.15219C1.63379 2.14418 2.50687 1.36681 3.63063 0.820086C4.77169 0.273365 6.12021 4.76837e-06 7.67619 4.76837e-06C8.93827 4.76837e-06 10.0447 0.170855 10.9956 0.512555C11.9465 0.837171 12.7331 1.2643 13.3555 1.79393C13.9952 2.30648 14.4707 2.86175 14.7819 3.45972C15.1103 4.0577 15.2832 4.61296 15.3005 5.12551C15.3178 5.27928 15.2746 5.40741 15.1709 5.50992C15.0671 5.61243 14.9288 5.66369 14.7559 5.66369H12.0848C11.9119 5.66369 11.7823 5.62952 11.6958 5.56118C11.6094 5.49284 11.5316 5.39033 11.4624 5.25365C11.3241 4.89486 11.108 4.54462 10.8141 4.20292C10.5202 3.84413 10.1225 3.54515 9.62117 3.30596C9.1198 3.06677 8.47147 2.94717 7.67619 2.94717C6.50056 2.94717 5.55833 3.2547 4.84949 3.86976C4.15794 4.48482 3.78623 5.50138 3.73437 6.91944C3.6825 8.40584 3.6825 9.90932 3.73437 11.4299C3.78623 12.8821 4.16658 13.9243 4.87542 14.5564C5.60155 15.1886 6.55243 15.5047 7.72806 15.5047C8.50605 15.5047 9.1976 15.368 9.80271 15.0946C10.4251 14.8213 10.9092 14.3941 11.255 13.8132C11.618 13.2324 11.7996 12.4892 11.7996 11.5837V10.7892H8.63572C8.46283 10.7892 8.31588 10.7294 8.19485 10.6098C8.07383 10.4902 8.01332 10.3364 8.01332 10.1485V8.79025C8.01332 8.60231 8.07383 8.44855 8.19485 8.32895C8.31588 8.20936 8.46283 8.14956 8.63572 8.14956H14.8337C15.0239 8.14956 15.1709 8.20936 15.2746 8.32895C15.3956 8.44855 15.4561 8.60231 15.4561 8.79025V11.4811C15.4561 12.9163 15.1363 14.1549 14.4966 15.1971C13.8742 16.2393 12.9752 17.0423 11.7996 17.6061C10.6412 18.1699 9.26676 18.4518 7.67619 18.4518Z" fill="var(--fill-0, white)"/>
</g>
</svg>
