<svg preserveAspectRatio="none" width="100%" height="100%" overflow="visible" style="display: block;" viewBox="0 0 29.6377 36.9036" fill="none" xmlns="http://www.w3.org/2000/svg">
<g id="Group 8">
<path id="Union" d="M23.1299 10.263C23.2643 10.3523 23.5522 10.5588 23.7695 10.718C23.9868 10.8811 24.3422 11.1605 24.5596 11.3469C24.7769 11.5295 25.1882 11.9179 25.4688 12.2053C25.7493 12.4889 26.1172 12.8891 26.2871 13.0911C26.4531 13.2931 26.7294 13.6588 26.9072 13.8958C27.085 14.1365 27.2275 14.346 27.2275 14.3616C27.2275 14.381 27.1167 14.4626 26.9863 14.5481C26.8559 14.6336 26.6546 14.8007 26.5439 14.9173C26.4294 15.0337 26.2715 15.2353 26.1924 15.3635C26.1134 15.4917 25.9988 15.7366 25.9355 15.9075C25.8368 16.1871 25.8242 16.2689 25.8242 16.7424C25.8242 17.2164 25.8368 17.2987 25.9355 17.5784C25.9988 17.7492 26.125 18.009 26.2158 18.1604C26.3145 18.3118 26.5158 18.5489 26.6777 18.6965C26.8714 18.8752 27.0777 19.0155 27.2871 19.1165C27.4609 19.198 27.7172 19.2954 27.8594 19.3342C28.0095 19.3692 28.2748 19.3958 28.4922 19.3958C28.6977 19.3958 28.9664 19.3771 29.085 19.3499C29.2035 19.3227 29.3056 19.3069 29.3096 19.3147C29.3175 19.3225 29.3579 19.5163 29.4014 19.7532C29.4448 19.9862 29.5151 20.472 29.5586 20.8294C29.6139 21.2877 29.6377 21.7271 29.6377 22.3059C29.6377 22.8729 29.6139 23.3427 29.5586 23.7932C29.5151 24.1583 29.4448 24.648 29.4014 24.8811C29.3579 25.1142 29.3175 25.3128 29.3096 25.3206C29.3013 25.3271 29.2007 25.312 29.085 25.2854C28.9664 25.2582 28.6977 25.2386 28.4922 25.2385C28.2748 25.2385 28.0056 25.27 27.8594 25.3049C27.7171 25.3438 27.4608 25.4403 27.2871 25.5217C27.0896 25.6149 26.8681 25.7668 26.6982 25.9182C26.5481 26.0542 26.3459 26.2833 26.2471 26.4348C26.1443 26.5863 26.0105 26.8548 25.9473 27.0374C25.8604 27.2859 25.8283 27.4648 25.8125 27.7561C25.7967 28.0434 25.8129 28.2262 25.8643 28.4553C25.9038 28.634 26.0106 28.9136 26.1172 29.1155C26.2278 29.3291 26.3822 29.5548 26.5205 29.6985C26.643 29.8266 26.8483 30.0008 26.9746 30.0862C27.1009 30.1715 27.2154 30.2452 27.2275 30.2493C27.2394 30.257 27.1401 30.4164 27.0098 30.6028C26.8794 30.7893 26.5952 31.159 26.3818 31.427C26.1645 31.6951 25.7301 32.173 25.4141 32.4915C25.094 32.81 24.6232 33.2446 24.3584 33.4622C24.0976 33.6758 23.6786 33.9944 23.4297 34.1692C23.1808 34.3401 22.9553 34.4954 22.9316 34.5071C22.9 34.5263 22.8453 34.4759 22.7861 34.3674C22.7348 34.2781 22.596 34.1031 22.4814 33.9749C22.3629 33.8506 22.1453 33.6647 21.9912 33.5676C21.8371 33.4666 21.6079 33.3418 21.4775 33.2952C21.3472 33.2447 21.0986 33.1788 20.9248 33.1477C20.7114 33.1089 20.5054 33.1009 20.292 33.1165C20.1181 33.132 19.861 33.1782 19.7188 33.221C19.5765 33.2637 19.3395 33.3611 19.1895 33.4387C19.0393 33.5203 18.8024 33.6875 18.6602 33.8157C18.5219 33.9438 18.3244 34.1691 18.2256 34.3206C18.1228 34.4721 17.988 34.7405 17.9287 34.9231C17.8418 35.1716 17.8068 35.3506 17.7949 35.6419C17.7831 35.8826 17.7945 36.1311 17.8301 36.2981C17.8617 36.469 17.8655 36.5658 17.8418 36.5774C17.8173 36.5853 17.5961 36.6285 17.3477 36.6712C17.0985 36.7139 16.5533 36.7837 16.1426 36.8264C15.7317 36.8691 15.1431 36.9036 14.8389 36.9036C14.5346 36.9036 14.0204 36.877 13.6924 36.846C13.3686 36.8149 12.9581 36.7677 12.7842 36.7444C12.6103 36.7211 12.3252 36.6788 12.1514 36.6477C11.9776 36.6167 11.8196 36.5852 11.7959 36.5774C11.7684 36.5655 11.7722 36.4765 11.8037 36.3176C11.8314 36.1817 11.8555 35.9369 11.8555 35.7776C11.8555 35.6183 11.8275 35.3656 11.7959 35.2141C11.7643 35.0626 11.6534 34.7754 11.5547 34.5735C11.4006 34.2744 11.3057 34.1463 11.0488 33.8899C10.7959 33.6452 10.6573 33.5396 10.3926 33.4153C10.2071 33.3261 9.94303 33.2218 9.80078 33.1868C9.64275 33.1479 9.39339 33.1204 9.14844 33.1204C8.90738 33.1204 8.65416 33.1479 8.49609 33.1868C8.35378 33.2218 8.08892 33.326 7.90723 33.4153C7.70569 33.5163 7.47247 33.6758 7.31836 33.8157C7.18009 33.9439 6.99417 34.1533 6.90723 34.2815C6.82029 34.4097 6.72981 34.5071 6.70215 34.5032C6.6782 34.4952 6.45681 34.3439 6.20801 34.1731C5.95903 33.9983 5.54006 33.6758 5.2793 33.4622C5.01457 33.2446 4.54458 32.8099 4.22852 32.4915C3.91238 32.1729 3.50884 31.7373 3.33496 31.5237C3.16111 31.3101 2.9319 31.015 2.82129 30.8635C2.71065 30.712 2.56908 30.5173 2.50586 30.4241C2.44301 30.3353 2.39899 30.254 2.41016 30.2493C2.42201 30.2415 2.50961 30.1874 2.6084 30.1253C2.70716 30.0631 2.88057 29.9273 2.99902 29.8186C3.1175 29.7099 3.2957 29.5004 3.39453 29.3489C3.49728 29.1974 3.62818 28.9289 3.69141 28.7464C3.77436 28.5017 3.80939 28.315 3.8252 28.0276C3.83704 27.7363 3.82481 27.5614 3.77344 27.3284C3.73391 27.1536 3.62411 26.8663 3.52539 26.6682C3.38708 26.4002 3.27608 26.2519 3.04688 26.0266C2.88105 25.8675 2.6402 25.6738 2.50977 25.5999C2.37937 25.5261 2.16171 25.4248 2.02734 25.3782C1.88903 25.3277 1.63193 25.2697 1.4541 25.2503C1.2447 25.227 1.02345 25.223 0.849609 25.2464C0.699447 25.2658 0.513466 25.2933 0.446289 25.3049C0.316255 25.3282 0.315799 25.3278 0.276367 25.1223C0.256609 25.0136 0.220976 24.815 0.197266 24.6868C0.17354 24.5584 0.12255 24.1621 0.0791016 23.801C0.0238044 23.3467 1.05772e-05 22.9079 0 22.3255C0 21.7622 0.0237773 21.2917 0.0791016 20.8411C0.122571 20.4759 0.193838 19.9863 0.237305 19.7532C0.280653 19.5169 0.320097 19.3233 0.328125 19.3147C0.332077 19.3069 0.435159 19.3227 0.553711 19.3499C0.672536 19.377 0.941304 19.3958 1.14648 19.3958C1.36372 19.3957 1.62826 19.3692 1.77832 19.3342C1.92058 19.2954 2.18536 19.1941 2.37109 19.1048C2.63978 18.9766 2.77429 18.8796 3.04297 18.6116C3.29193 18.363 3.41865 18.2031 3.5293 17.9856C3.60826 17.8264 3.71044 17.5548 3.75391 17.384C3.80133 17.1937 3.83301 16.9444 3.83301 16.7424C3.83297 16.5367 3.80524 16.2959 3.75391 16.1018C3.70649 15.931 3.59955 15.6595 3.5166 15.5003C3.43367 15.3411 3.25636 15.0962 3.12598 14.9563C2.99952 14.8165 2.78573 14.6336 2.65137 14.5481C2.52122 14.4628 2.41049 14.3851 2.41016 14.3733C2.41016 14.3617 2.55276 14.1521 2.73047 13.9075C2.9083 13.6628 3.20489 13.2773 3.39062 13.052C3.5765 12.8266 4.02336 12.3565 4.38281 12.0032C4.7424 11.6497 5.25197 11.1914 5.5127 10.9856C5.77347 10.7798 6.15683 10.5005 6.3623 10.3606C6.56779 10.2208 6.74596 10.1195 6.75781 10.1311C6.76993 10.147 6.85273 10.2639 6.93555 10.388C7.02258 10.5162 7.20845 10.7218 7.35059 10.846C7.50464 10.9857 7.73329 11.1375 7.92285 11.2307C8.09673 11.3123 8.34616 11.4057 8.47656 11.4368C8.60695 11.4678 8.79663 11.5024 9.08887 11.5374L8.22754 12.3801C7.75728 12.8463 7.17265 13.4608 6.93555 13.7444C6.69454 14.0279 6.35072 14.4665 6.16895 14.7151C5.98717 14.9637 5.70597 15.3875 5.54395 15.6555C5.38193 15.9236 5.13726 16.3701 4.99902 16.6458C4.86079 16.9214 4.6633 17.36 4.56445 17.6165C4.46173 17.8728 4.32314 18.2848 4.24805 18.5296C4.17697 18.7741 4.08258 19.1508 4.03906 19.3645C3.99164 19.5782 3.92428 19.9557 3.88477 20.2005C3.82947 20.55 3.81348 20.888 3.81348 21.7346C3.81348 22.593 3.82946 22.9154 3.88477 23.2688C3.92428 23.5135 3.99936 23.9176 4.05469 24.1624C4.10999 24.407 4.24001 24.8614 4.34668 25.1721C4.45332 25.4827 4.63539 25.945 4.75 26.2014C4.86855 26.4578 5.05821 26.8354 5.17676 27.0374C5.29137 27.2394 5.5052 27.5806 5.65137 27.7942C5.79758 28.0079 6.06631 28.3658 6.24414 28.5911C6.42599 28.8164 6.78141 29.2009 7.03027 29.4456C7.28319 29.6942 7.66646 30.0364 7.88379 30.2073C8.10116 30.3782 8.48452 30.6497 8.7334 30.8128C8.98236 30.9759 9.39362 31.2129 9.64258 31.3411C9.89153 31.4731 10.2469 31.6404 10.4326 31.718C10.6183 31.7957 10.8908 31.9049 11.0449 31.9592C11.199 32.0136 11.4918 32.1061 11.6973 32.1682C11.9028 32.2304 12.2861 32.3238 12.5469 32.3782C12.8077 32.4287 13.2546 32.4985 13.5352 32.5335C13.8277 32.5645 14.3809 32.5921 14.8193 32.5921C15.2579 32.592 15.8112 32.5645 16.1035 32.5335C16.3841 32.4985 16.7954 32.4365 17.0127 32.3938C17.2302 32.351 17.6289 32.2537 17.9014 32.1799C18.174 32.1023 18.6007 31.9626 18.8496 31.8655C19.0984 31.7684 19.5252 31.5786 19.7979 31.4426C20.0705 31.3106 20.4702 31.0884 20.6875 30.9524C20.9049 30.8164 21.2603 30.5716 21.4775 30.4124C21.6949 30.2492 22.0589 29.9503 22.2881 29.7483C22.5173 29.5463 22.8611 29.2011 23.0586 28.9837C23.2562 28.7622 23.5566 28.3925 23.7305 28.1633C23.9044 27.9302 24.177 27.526 24.3311 27.262C24.4891 26.9978 24.7222 26.5552 24.8525 26.2796C24.9829 26.0037 25.1765 25.5102 25.2832 25.1917C25.3938 24.8693 25.5287 24.407 25.584 24.1624C25.6393 23.9177 25.7096 23.5331 25.7451 23.3079C25.7807 23.0826 25.8202 22.531 25.832 22.0842C25.8478 21.5794 25.8362 21.0707 25.8086 20.7444C25.7809 20.4569 25.7261 20.0175 25.6826 19.7727C25.6391 19.528 25.5515 19.1356 25.4883 18.8987C25.425 18.6617 25.3105 18.2811 25.2314 18.0442C25.1485 17.8073 24.9713 17.3647 24.833 17.054C24.6947 16.7432 24.4529 16.2732 24.2988 16.0051C24.1447 15.7371 23.8722 15.3015 23.6904 15.0335C23.5087 14.7655 23.1927 14.3465 22.9912 14.0979C22.7897 13.8494 22.4459 13.4491 22.2285 13.2083C22.0112 12.9674 21.5409 12.493 20.5293 11.5413L20.7266 11.5178C20.8372 11.5062 21.0394 11.4678 21.1816 11.4329C21.3239 11.3979 21.5724 11.3044 21.7344 11.2229C21.9162 11.1336 22.1415 10.9778 22.3232 10.8108C22.4813 10.6671 22.6754 10.4456 22.8809 10.0999L23.1299 10.263Z" fill="var(--fill-0, white)"/>
<path id="Path 1" d="M10.6065 7.27588C10.6302 7.28364 10.6499 7.30695 10.6499 7.32638C10.6499 7.3458 10.6223 7.52061 10.5946 7.71095C10.5591 7.94403 10.5472 8.24315 10.563 8.60442C10.5709 8.90353 10.6144 9.28811 10.6499 9.45903C10.6855 9.62996 10.7606 9.91742 10.8159 10.1C10.8673 10.2826 10.974 10.5856 11.053 10.7798C11.1281 10.9702 11.298 11.3392 11.4245 11.5956C11.5509 11.852 11.7801 12.2793 11.9382 12.5473C12.0923 12.8153 12.5981 13.6272 13.0605 14.3537C13.5229 15.0801 14.0168 15.8764 14.1551 16.1212C14.2974 16.3659 14.5108 16.7582 14.6293 16.9952C14.7518 17.2283 14.9336 17.6323 15.0364 17.8887C15.1391 18.145 15.2735 18.5568 15.3367 18.8015C15.4039 19.0463 15.475 19.458 15.4987 19.7144C15.5343 20.0679 15.5343 20.2894 15.4987 20.6273C15.4711 20.8721 15.4078 21.2411 15.3525 21.4431C15.2893 21.6723 15.151 22.018 14.9771 22.356C14.7993 22.7134 14.5898 23.0474 14.3764 23.3271C14.1946 23.5602 13.835 23.9642 13.5742 24.2245C13.3134 24.4809 12.7878 24.9664 12.4085 25.2966C12.0291 25.6268 11.547 26.0736 11.3375 26.2833C11.1321 26.4931 10.8673 26.8 10.7527 26.9593C10.6381 27.1185 10.4761 27.3866 10.3891 27.5497C10.3061 27.7168 10.1915 27.9964 10.1402 28.1713C10.0888 28.3499 10.0256 28.6685 10.0019 28.8821C9.97419 29.1424 9.97419 29.4143 9.9979 29.6979C10.0177 29.931 10.0216 30.1369 10.0058 30.1524C9.99 30.1718 9.82008 30.0864 9.62249 29.966C9.42885 29.8455 9.09691 29.6241 8.89142 29.4687C8.68593 29.3172 8.31447 28.9987 8.06551 28.7656C7.8205 28.5325 7.47275 28.1713 7.30282 27.9693C7.12894 27.7673 6.84442 27.3904 6.67054 27.1341C6.49667 26.8777 6.224 26.4038 6.06593 26.0852C5.90391 25.7628 5.71027 25.3277 5.63124 25.1141C5.54825 24.9004 5.42575 24.4964 5.35462 24.2206C5.28348 23.9448 5.18864 23.5136 5.14913 23.2689C5.08985 22.9037 5.07799 22.6085 5.08195 21.6762C5.08195 20.7011 5.0938 20.4486 5.16888 19.9864C5.21631 19.6872 5.30719 19.2327 5.37042 18.9764C5.43365 18.72 5.5443 18.3509 5.61148 18.1606C5.68261 17.9702 5.81697 17.6362 5.91576 17.4225C6.0106 17.2089 6.18843 16.8592 6.30698 16.6456C6.42949 16.4319 6.70611 15.9735 6.92741 15.6239C7.1487 15.2782 7.35024 14.9985 7.37 15.0102C7.39371 15.0179 7.40557 15.0374 7.40161 15.0568C7.39766 15.0762 7.31072 15.3209 7.21193 15.5967C7.11314 15.8725 6.99063 16.2921 6.93136 16.529C6.86023 16.832 6.82466 17.1156 6.80885 17.5002C6.797 17.811 6.8049 18.1373 6.82861 18.2577C6.85232 18.3742 6.9116 18.5762 6.95902 18.7044C7.01039 18.8326 7.11709 19.0191 7.20008 19.1201C7.30677 19.2522 7.42928 19.3454 7.61501 19.4309C7.85211 19.5435 7.91534 19.559 8.19986 19.5552C8.41326 19.5513 8.59109 19.5202 8.75311 19.4658C8.88352 19.4192 9.09691 19.3143 9.22732 19.2366C9.35772 19.1589 9.58297 18.9802 9.72523 18.8404C9.87145 18.7005 10.0927 18.4286 10.2192 18.2383C10.3457 18.0479 10.5116 17.741 10.5828 17.5585C10.6578 17.3759 10.7606 17.069 10.808 16.8787C10.8594 16.6883 10.9226 16.3193 10.9463 16.0629C10.974 15.7949 10.9819 15.4336 10.9661 15.2083C10.9542 14.9946 10.9147 14.645 10.8831 14.4313C10.8515 14.2177 10.7685 13.8253 10.6934 13.5573C10.6223 13.2893 10.4603 12.7493 10.3378 12.3531C10.2152 11.9568 10.069 11.4324 10.0137 11.1877C9.93863 10.842 9.91097 10.5895 9.89121 10.0611C9.8754 9.54061 9.8833 9.29976 9.93072 9.03172C9.96629 8.84138 10.0493 8.51507 10.1165 8.31307C10.1836 8.11107 10.314 7.78865 10.401 7.60218C10.4919 7.41572 10.5828 7.26811 10.6065 7.27588Z" fill="var(--fill-0, white)"/>
<path id="Path 2" d="M18.5218 2.66094C18.5297 2.67259 18.4981 2.72697 18.4586 2.78913C18.4151 2.8474 18.3005 3.06105 18.2057 3.26305C18.1069 3.46505 17.9883 3.77194 17.9488 3.94286C17.9053 4.11378 17.8579 4.37794 17.8421 4.52555C17.8303 4.67317 17.8342 4.94509 17.8579 5.12767C17.8816 5.31025 17.9528 5.6249 18.0199 5.8269C18.0871 6.0289 18.2412 6.39794 18.3677 6.64267C18.4941 6.8874 18.7866 7.40406 19.0197 7.78864C19.2489 8.17321 19.5255 8.67045 19.6362 8.89575C19.7429 9.12106 19.8693 9.40852 19.9089 9.53672C19.9523 9.66491 20.0156 9.90576 20.0511 10.0728C20.0867 10.2359 20.1144 10.5389 20.1144 10.7409C20.1144 10.943 20.1025 11.11 20.0867 11.11C20.0669 11.11 19.4663 10.5389 18.7471 9.83972C17.9172 9.0356 17.3323 8.4296 17.1506 8.19652C16.9925 7.99452 16.7949 7.71483 16.7119 7.57498C16.6289 7.43514 16.5143 7.19041 16.455 7.03114C16.3839 6.82914 16.3444 6.62713 16.3325 6.37075C16.3128 6.07163 16.3286 5.93956 16.3958 5.67152C16.4432 5.48894 16.5499 5.20148 16.6329 5.03056C16.7198 4.85963 16.8739 4.58771 16.9806 4.42844C17.0873 4.26917 17.3165 3.96228 17.4904 3.74863C17.6643 3.53498 17.9646 3.19701 18.1582 2.9989C18.3479 2.80078 18.5139 2.64928 18.5218 2.66094Z" fill="var(--fill-0, white)"/>
<path id="Path 3" d="M15.238 4.33552e-07C15.2696 4.33552e-07 15.2933 0.0194235 15.2933 0.0388467C15.2933 0.0582698 15.2182 0.221424 15.1313 0.400117C15.0404 0.574925 14.8744 0.943964 14.7598 1.22366C14.6452 1.50335 14.499 1.92289 14.4318 2.15597C14.3646 2.38904 14.2777 2.73866 14.2382 2.93289C14.1868 3.19316 14.171 3.47674 14.1671 4.04001C14.1671 4.6227 14.1829 4.87909 14.2421 5.14712C14.2817 5.33747 14.3765 5.68709 14.4555 5.92405C14.5306 6.16101 14.7124 6.57667 14.8547 6.85636C15.0009 7.13605 15.2538 7.56336 15.4198 7.80809C15.5857 8.05282 15.8742 8.4374 16.056 8.66271C16.2417 8.88802 16.5539 9.25317 16.7554 9.47848C16.957 9.70379 17.2376 10.0068 17.3838 10.1544C17.526 10.302 18.1227 10.8731 18.7076 11.4169C19.2925 11.9646 20.0196 12.6755 20.3239 12.9941C20.6281 13.3165 21.0194 13.7438 21.1893 13.9458C21.3632 14.1478 21.6596 14.5168 21.8492 14.7616C22.0389 15.0063 22.3195 15.3909 22.4736 15.6162C22.6238 15.8415 22.8411 16.1833 22.9597 16.3737C23.0743 16.564 23.2719 16.9292 23.3983 17.1817C23.5287 17.4303 23.6986 17.7993 23.7856 17.9936C23.8686 18.1917 24.0029 18.5568 24.082 18.8016C24.165 19.0463 24.2716 19.4231 24.327 19.6368C24.3783 19.8504 24.4534 20.2195 24.489 20.4525C24.5404 20.775 24.5601 21.1168 24.5601 21.851C24.5601 22.6007 24.5443 22.9232 24.485 23.2689C24.4455 23.5136 24.3546 23.9448 24.2835 24.2206C24.2124 24.4964 24.0859 24.9082 24.0029 25.1335C23.9199 25.3588 23.7224 25.7939 23.5682 26.1047C23.4102 26.4154 23.1454 26.8699 22.9794 27.1147C22.8135 27.3594 22.5289 27.7362 22.3472 27.9499C22.1693 28.1635 21.8532 28.4976 21.6516 28.6918C21.4462 28.8822 21.1458 29.1463 20.9838 29.2745C20.8218 29.4027 20.5452 29.6086 20.3713 29.7251C20.1974 29.8456 19.8576 30.0514 19.6205 30.1874C19.3794 30.3195 19.0158 30.5059 18.8104 30.5953C18.6049 30.6846 18.2492 30.8206 18.02 30.8983C17.7908 30.9799 17.4351 31.0847 17.2297 31.1352C17.0242 31.1857 16.6408 31.2673 16.38 31.3139C16.0323 31.3722 15.6766 31.4033 15.0562 31.4149C14.4042 31.4305 14.0841 31.4188 13.6731 31.3722C13.3807 31.3372 12.942 31.2634 12.7049 31.2091C12.4639 31.1586 12.1635 31.0809 11.796 30.9682L11.7209 30.7235C11.6617 30.5292 11.6459 30.3467 11.6419 29.8727C11.638 29.3522 11.6498 29.2279 11.7288 28.9599C11.7802 28.7889 11.883 28.517 11.958 28.3577C12.0331 28.1985 12.211 27.8994 12.3493 27.6974C12.4876 27.4954 12.7168 27.1885 12.863 27.0175C13.0053 26.8466 13.4755 26.3377 13.9062 25.891C14.337 25.4443 14.7993 24.9548 14.9337 24.8033C15.072 24.6518 15.3091 24.3644 15.4672 24.1623C15.6253 23.9603 15.8505 23.6263 15.973 23.4243C16.0955 23.2223 16.2575 22.9076 16.3326 22.725C16.4116 22.5425 16.5183 22.2395 16.5776 22.0452C16.6329 21.851 16.7159 21.4975 16.7594 21.2567C16.8108 20.9614 16.8345 20.6429 16.8345 20.2583C16.8345 19.9437 16.8068 19.5008 16.7713 19.2561C16.7357 19.0191 16.6448 18.6035 16.5697 18.3354C16.4986 18.0674 16.3563 17.6478 16.2575 17.4031C16.1587 17.1584 15.9374 16.6845 15.7715 16.3543C15.6015 16.0241 15.3012 15.4802 15.0957 15.15C14.8942 14.8198 14.4832 14.1905 14.1829 13.7516C13.8865 13.3126 13.4241 12.6483 13.1594 12.2754C12.8946 11.9025 12.5824 11.413 12.4678 11.1877C12.3532 10.9624 12.207 10.6206 12.1398 10.4302C12.0726 10.2399 11.9818 9.91356 11.9383 9.71156C11.8948 9.50956 11.8395 9.18325 11.8158 8.9929C11.796 8.80255 11.7763 8.41798 11.7763 8.13828C11.7763 7.85859 11.8039 7.41574 11.8355 7.14771C11.8672 6.87967 11.9383 6.44459 11.9976 6.17655C12.0529 5.90851 12.1596 5.48897 12.2347 5.24424C12.3058 4.99951 12.4441 4.59551 12.5389 4.35078C12.6338 4.10605 12.7721 3.77197 12.8432 3.6127C12.9144 3.45343 13.0606 3.14654 13.1673 2.93289C13.2779 2.71924 13.5269 2.27639 13.7245 1.9462C13.926 1.61989 14.2382 1.15373 14.42 0.916771C14.6018 0.679809 14.8468 0.376809 14.9653 0.240847C15.0878 0.10877 15.2103 4.33552e-07 15.238 4.33552e-07Z" fill="var(--fill-0, white)"/>
</g>
</svg>
