<svg preserveAspectRatio="none" width="100%" height="100%" overflow="visible" style="display: block;" viewBox="0 0 58 58" fill="none" xmlns="http://www.w3.org/2000/svg">
<g id="Group 4286">
<g id="Ellipse 15023" filter="url(#filter0_dd_0_48)">
<circle cx="29" cy="29" r="28" fill="var(--fill-0, #0D0D0D)"/>
</g>
<g id="Group">
<path id="Vector" fill-rule="evenodd" clip-rule="evenodd" d="M20.2952 26.8313L29.334 36.0323L38.2762 26.9296L45.6081 34.393L37.0894 43.0647L34.8979 40.8933L41.2835 34.393L38.2762 31.3317L29.334 40.4345L20.2952 31.2335L17.3245 34.2576L23.8072 40.8567L21.6158 43.028L12.9999 34.2576L20.2952 26.8313Z" fill="var(--fill-0, white)"/>
<path id="Vector_2" fill-rule="evenodd" clip-rule="evenodd" d="M38.3128 31.2333L29.274 22.0324L20.3319 31.1351L12.9999 23.6716L21.5186 15L23.7101 17.1714L17.3245 23.6716L20.3319 26.733L29.274 17.6302L38.3128 26.8312L41.2836 23.8071L34.8008 17.208L36.9923 15.0366L45.6081 23.8071L38.3128 31.2333Z" fill="var(--fill-0, white)"/>
<path id="Vector_3" fill-rule="evenodd" clip-rule="evenodd" d="M27.9249 42.8486V37.0516H30.8765V42.8486H27.9249Z" fill="var(--fill-0, white)"/>
<path id="Vector_4" fill-rule="evenodd" clip-rule="evenodd" d="M27.9249 21.0132V15.2162H30.8765V21.0132H27.9249Z" fill="var(--fill-0, white)"/>
</g>
</g>
<defs>
<filter id="filter0_dd_0_48" x="0" y="0" width="58" height="58" filterUnits="userSpaceOnUse" color-interpolation-filters="sRGB">
<feFlood flood-opacity="0" result="BackgroundImageFix"/>
<feColorMatrix in="SourceAlpha" type="matrix" values="0 0 0 0 0 0 0 0 0 0 0 0 0 0 0 0 0 0 127 0" result="hardAlpha"/>
<feOffset dx="1" dy="1"/>
<feComposite in2="hardAlpha" operator="out"/>
<feColorMatrix type="matrix" values="0 0 0 0 0.956863 0 0 0 0 0.0705882 0 0 0 0 0.603922 0 0 0 1 0"/>
<feBlend mode="normal" in2="BackgroundImageFix" result="effect1_dropShadow_0_48"/>
<feColorMatrix in="SourceAlpha" type="matrix" values="0 0 0 0 0 0 0 0 0 0 0 0 0 0 0 0 0 0 127 0" result="hardAlpha"/>
<feOffset dx="-1" dy="-1"/>
<feComposite in2="hardAlpha" operator="out"/>
<feColorMatrix type="matrix" values="0 0 0 0 1 0 0 0 0 0.4 0 0 0 0 0 0 0 0 1 0"/>
<feBlend mode="normal" in2="effect1_dropShadow_0_48" result="effect2_dropShadow_0_48"/>
<feBlend mode="normal" in="SourceGraphic" in2="effect2_dropShadow_0_48" result="shape"/>
</filter>
</defs>
</svg>
