<svg preserveAspectRatio="none" width="100%" height="100%" overflow="visible" style="display: block;" viewBox="0 0 34 34" fill="none" xmlns="http://www.w3.org/2000/svg">
<g id="Group 4263">
<circle id="Ellipse 15024" cx="17" cy="17" r="17" fill="var(--fill-0, black)"/>
<g id="RWA">
<path id="Vector" d="M26.476 19.2187H23.9154L23.4115 21H21.6771L24.4721 12.4687H25.9662L28.7084 21H26.974L26.476 19.2187ZM24.3197 17.8184H26.0893L25.2162 14.6777L24.3197 17.8184Z" fill="var(--fill-0, white)"/>
<path id="Vector_2" d="M15.081 21L13.9091 12.4687H15.4149L15.9833 17.2383L16.0243 17.5723L16.077 17.2207L16.7509 12.4687H17.9286L18.6435 17.2559L18.6962 17.6074L18.7372 17.25L19.3173 12.4687H20.829L19.6454 21H18.1571L17.413 16.3945L17.3485 15.9609L17.2841 16.3945L16.5692 21H15.081Z" fill="var(--fill-0, white)"/>
<path id="Vector_3" d="M9.66211 17.8125H8.41406V21H6.76758V12.4688H9.62695C10.0996 12.4688 10.5273 12.5254 10.9102 12.6387C11.293 12.748 11.6211 12.9102 11.8945 13.125C12.1641 13.3398 12.3711 13.6074 12.5156 13.9277C12.6641 14.248 12.7383 14.6191 12.7383 15.041C12.7383 15.3457 12.7012 15.6211 12.627 15.8672C12.5566 16.1094 12.4551 16.3262 12.3223 16.5176C12.1855 16.7129 12.0215 16.8828 11.8301 17.0273C11.6426 17.1719 11.4316 17.2969 11.1973 17.4023L13.0312 20.9238V21H11.2676L9.66211 17.8125ZM8.41406 16.4766H9.63281C9.88672 16.4766 10.1094 16.4414 10.3008 16.3711C10.4961 16.2969 10.6543 16.1914 10.7754 16.0547C10.877 15.9453 10.9531 15.8145 11.0039 15.6621C11.0586 15.5098 11.0859 15.3398 11.0859 15.1523C11.0859 14.9258 11.0508 14.7266 10.9805 14.5547C10.9141 14.3789 10.8125 14.2344 10.6758 14.1211C10.5547 14.0195 10.4062 13.9414 10.2305 13.8867C10.0547 13.832 9.85352 13.8047 9.62695 13.8047H8.41406V16.4766Z" fill="var(--fill-0, white)"/>
</g>
</g>
</svg>
