<svg preserveAspectRatio="none" width="100%" height="100%" overflow="visible" style="display: block;" viewBox="0 0 34 34" fill="none" xmlns="http://www.w3.org/2000/svg">
<g id="Group 427">
<circle id="Ellipse 76" cx="17" cy="17" r="17" fill="var(--fill-0, white)"/>
<g id="tether-usdt-logo 1" clip-path="url(#clip0_0_261)">
<path id="Vector" fill-rule="evenodd" clip-rule="evenodd" d="M8.91886 8.60436L4.26931 17.9602C4.25162 17.995 4.24601 18.0343 4.25331 18.0724C4.26061 18.1105 4.28043 18.1453 4.30988 18.1718L16.8672 29.6989C16.9029 29.7317 16.9504 29.75 16.9998 29.75C17.0492 29.75 17.0967 29.7317 17.1324 29.6989L29.6897 18.1725C29.7191 18.146 29.7389 18.1112 29.7462 18.0731C29.7535 18.035 29.7479 17.9957 29.7302 17.9609L25.0807 8.60508C25.0657 8.57366 25.0416 8.54704 25.0112 8.52841C24.9808 8.50978 24.9455 8.49992 24.9094 8.50001H9.09165C9.05541 8.49958 9.01981 8.5092 8.98915 8.52771C8.95849 8.54623 8.93408 8.57285 8.91886 8.60436V8.60436V8.60436Z" fill="var(--fill-0, #50AF95)"/>
<path id="Vector_2" fill-rule="evenodd" clip-rule="evenodd" d="M18.6133 18.921C18.5232 18.9274 18.0574 18.9541 17.0184 18.9541C16.192 18.9541 15.6053 18.9303 15.3994 18.921C12.2058 18.7864 9.82209 18.2538 9.82209 17.6162C9.82209 16.9786 12.2058 16.4467 15.3994 16.31V18.3906C15.6083 18.405 16.2063 18.4388 17.0327 18.4388C18.0243 18.4388 18.5209 18.3992 18.6103 18.3913V16.3114C21.7972 16.4474 24.1757 16.98 24.1757 17.6162C24.1757 18.2524 21.7979 18.785 18.6103 18.9203L18.6133 18.921ZM18.6133 16.0962V14.2344H23.0608V11.3953H10.952V14.2344H15.3987V16.0955C11.7844 16.2546 9.06632 16.9404 9.06632 17.7623C9.06632 18.5842 11.7844 19.2693 15.3987 19.4291V25.3952H18.6126V19.4269C22.2186 19.2679 24.9322 18.5827 24.9322 17.7616C24.9322 16.9404 22.2209 16.2553 18.6126 16.0955L18.6133 16.0962Z" fill="var(--fill-0, white)"/>
</g>
</g>
<defs>
<clipPath id="clip0_0_261">
<rect width="25.5" height="21.25" fill="white" transform="translate(4.25 8.5)"/>
</clipPath>
</defs>
</svg>
