<svg preserveAspectRatio="none" width="100%" height="100%" overflow="visible" style="display: block;" viewBox="0 0 34 34" fill="none" xmlns="http://www.w3.org/2000/svg">
<g id="usd-coin-usdc-logo 2" clip-path="url(#clip0_0_266)">
<path id="Vector" d="M17 34C26.4209 34 34 26.4209 34 17C34 7.57911 26.4209 0 17 0C7.57911 0 0 7.57911 0 17C0 26.4209 7.57911 34 17 34Z" fill="var(--fill-0, #2775CA)"/>
<path id="Vector_2" d="M21.675 19.6916C21.675 17.2125 20.1875 16.3625 17.2125 16.0084C15.0875 15.725 14.6625 15.1584 14.6625 14.1666C14.6625 13.1748 15.3709 12.5375 16.7875 12.5375C18.0625 12.5375 18.7709 12.9625 19.125 14.025C19.1959 14.2375 19.4084 14.3791 19.6209 14.3791H20.7541C21.0375 14.3791 21.25 14.1666 21.25 13.8834V13.8125C20.9666 12.2541 19.6916 11.05 18.0625 10.9084V9.20839C18.0625 8.925 17.85 8.7125 17.4959 8.64161H16.4334C16.15 8.64161 15.9375 8.85411 15.8666 9.20839V10.8375C13.7416 11.1209 12.3959 12.5375 12.3959 14.3084C12.3959 16.6459 13.8125 17.5666 16.7875 17.9209C18.7709 18.275 19.4084 18.7 19.4084 19.8334C19.4084 20.9668 18.4166 21.7459 17.0709 21.7459C15.2291 21.7459 14.5916 20.9666 14.3791 19.9041C14.3084 19.6209 14.0959 19.4791 13.8834 19.4791H12.6791C12.3959 19.4791 12.1834 19.6916 12.1834 19.975V20.0459C12.4666 21.8166 13.6 23.0916 15.9375 23.4459V25.1459C15.9375 25.4291 16.15 25.6416 16.5041 25.7125H17.5666C17.85 25.7125 18.0625 25.5 18.1334 25.1459V23.4459C20.2584 23.0916 21.675 21.6041 21.675 19.6916V19.6916Z" fill="var(--fill-0, white)"/>
<path id="Vector_3" d="M13.3875 27.1291C7.8625 25.1459 5.02911 18.9834 7.08339 13.5291C8.14589 10.5541 10.4834 8.2875 13.3875 7.225C13.6709 7.08339 13.8125 6.87089 13.8125 6.51661V5.525C13.8125 5.24161 13.6709 5.02911 13.3875 4.95839C13.3166 4.95839 13.175 4.95839 13.1041 5.02911C6.375 7.15411 2.69161 14.3084 4.81661 21.0375C6.09161 25.0041 9.1375 28.05 13.1041 29.325C13.3875 29.4666 13.6709 29.325 13.7416 29.0416C13.8125 28.9709 13.8125 28.9 13.8125 28.7584V27.7666C13.8125 27.5541 13.6 27.2709 13.3875 27.1291ZM20.8959 5.02911C20.6125 4.8875 20.3291 5.02911 20.2584 5.3125C20.1875 5.38339 20.1875 5.45411 20.1875 5.59589V6.5875C20.1875 6.87089 20.4 7.15411 20.6125 7.29589C26.1375 9.27911 28.9709 15.4416 26.9166 20.8959C25.8541 23.8709 23.5166 26.1375 20.6125 27.2C20.3291 27.3416 20.1875 27.5541 20.1875 27.9084V28.9C20.1875 29.1834 20.3291 29.3959 20.6125 29.4666C20.6834 29.4666 20.825 29.4666 20.8959 29.3959C27.625 27.2709 31.3084 20.1166 29.1834 13.3875C27.9084 9.35 24.7916 6.30411 20.8959 5.02911V5.02911Z" fill="var(--fill-0, white)"/>
</g>
<defs>
<clipPath id="clip0_0_266">
<rect width="34" height="34" fill="white"/>
</clipPath>
</defs>
</svg>
