<svg preserveAspectRatio="none" width="100%" height="100%" overflow="visible" style="display: block;" viewBox="0 0 1041 1041" fill="none" xmlns="http://www.w3.org/2000/svg">
<g id="Group 4273">
<circle id="Ellipse 15026" cx="520.5" cy="519.853" r="494.137" stroke="var(--stroke-0, #DCDCDC)"/>
<circle id="Ellipse 15027" cx="520.5" cy="519.853" r="349.302" stroke="var(--stroke-0, #DCDCDC)"/>
<circle id="Ellipse 15028" cx="520.5" cy="519.853" r="204.467" stroke="var(--stroke-0, #DCDCDC)"/>
<circle id="Ellipse 15029" cx="725.467" cy="520.5" r="25.3634" fill="var(--fill-0, white)" stroke="var(--stroke-0, #DCDCDC)"/>
<circle id="Ellipse 15035" cx="520.5" cy="315.533" r="25.3634" transform="rotate(-90 520.5 315.533)" fill="var(--fill-0, white)" stroke="var(--stroke-0, #DCDCDC)"/>
<circle id="Ellipse 15041" cx="375.567" cy="665.434" r="25.3634" transform="rotate(135 375.567 665.434)" fill="var(--fill-0, white)" stroke="var(--stroke-0, #DCDCDC)"/>
<circle id="Ellipse 15047" cx="375.566" cy="375.566" r="25.3634" transform="rotate(-135 375.566 375.566)" fill="var(--fill-0, white)" stroke="var(--stroke-0, #DCDCDC)"/>
<circle id="Ellipse 15032" cx="25.8634" cy="520.5" r="25.3634" fill="var(--fill-0, white)" stroke="var(--stroke-0, #DCDCDC)"/>
<circle id="Ellipse 15036" cx="520.5" cy="1015.14" r="25.3634" transform="rotate(-90 520.5 1015.14)" fill="var(--fill-0, white)" stroke="var(--stroke-0, #DCDCDC)"/>
<circle id="Ellipse 15042" cx="870.261" cy="170.739" r="25.3634" transform="rotate(135 870.261 170.739)" fill="var(--fill-0, white)" stroke="var(--stroke-0, #DCDCDC)"/>
<circle id="Ellipse 15048" cx="870.261" cy="870.261" r="25.3634" transform="rotate(-135 870.261 870.261)" fill="var(--fill-0, white)" stroke="var(--stroke-0, #DCDCDC)"/>
<circle id="Ellipse 15030" cx="843.101" cy="655.741" r="25.3634" transform="rotate(22.7444 843.101 655.741)" fill="var(--fill-0, white)" stroke="var(--stroke-0, #DCDCDC)"/>
<circle id="Ellipse 15037" cx="655.741" cy="197.899" r="25.3634" transform="rotate(-67.2556 655.741 197.899)" fill="var(--fill-0, white)" stroke="var(--stroke-0, #DCDCDC)"/>
<circle id="Ellipse 15043" cx="196.757" cy="652.984" r="25.3634" transform="rotate(157.744 196.757 652.984)" fill="var(--fill-0, white)" stroke="var(--stroke-0, #DCDCDC)"/>
<circle id="Ellipse 15049" cx="388.016" cy="196.757" r="25.3634" transform="rotate(-112.256 388.016 196.757)" fill="var(--fill-0, white)" stroke="var(--stroke-0, #DCDCDC)"/>
<circle id="Ellipse 15033" cx="197.899" cy="385.259" r="25.3634" transform="rotate(22.7444 197.899 385.259)" fill="var(--fill-0, white)" stroke="var(--stroke-0, #DCDCDC)"/>
<circle id="Ellipse 15038" cx="385.259" cy="843.101" r="25.3634" transform="rotate(-67.2556 385.259 843.101)" fill="var(--fill-0, white)" stroke="var(--stroke-0, #DCDCDC)"/>
<circle id="Ellipse 15044" cx="844.243" cy="388.016" r="25.3634" transform="rotate(157.744 844.243 388.016)" fill="var(--fill-0, white)" stroke="var(--stroke-0, #DCDCDC)"/>
<circle id="Ellipse 15050" cx="652.984" cy="844.243" r="25.3634" transform="rotate(-112.256 652.984 844.243)" fill="var(--fill-0, white)" stroke="var(--stroke-0, #DCDCDC)"/>
<circle id="Ellipse 15031" cx="1015.14" cy="520.5" r="25.3634" fill="var(--fill-0, white)" stroke="var(--stroke-0, #DCDCDC)"/>
<circle id="Ellipse 15039" cx="520.5" cy="25.8634" r="25.3634" transform="rotate(-90 520.5 25.8634)" fill="var(--fill-0, white)" stroke="var(--stroke-0, #DCDCDC)"/>
<circle id="Ellipse 15045" cx="170.739" cy="870.261" r="25.3634" transform="rotate(135 170.739 870.261)" fill="var(--fill-0, white)" stroke="var(--stroke-0, #DCDCDC)"/>
<circle id="Ellipse 15051" cx="170.739" cy="170.739" r="25.3634" transform="rotate(-135 170.739 170.739)" fill="var(--fill-0, white)" stroke="var(--stroke-0, #DCDCDC)"/>
<circle id="Ellipse 15034" cx="315.533" cy="520.5" r="25.3634" fill="var(--fill-0, white)" stroke="var(--stroke-0, #DCDCDC)"/>
<circle id="Ellipse 15040" cx="520.5" cy="725.467" r="25.3634" transform="rotate(-90 520.5 725.467)" fill="var(--fill-0, white)" stroke="var(--stroke-0, #DCDCDC)"/>
<circle id="Ellipse 15046" cx="665.434" cy="375.566" r="25.3634" transform="rotate(135 665.434 375.566)" fill="var(--fill-0, white)" stroke="var(--stroke-0, #DCDCDC)"/>
<circle id="Ellipse 15052" cx="665.433" cy="665.433" r="25.3634" transform="rotate(-135 665.433 665.433)" fill="var(--fill-0, white)" stroke="var(--stroke-0, #DCDCDC)"/>
</g>
</svg>
