<svg width="1040" height="1040" viewBox="0 0 1040 1040" fill="none" xmlns="http://www.w3.org/2000/svg">
<g clip-path="url(#clip0_118_3761)">
<circle cx="520" cy="519.355" r="493.661" stroke="#DCDCDC"/>
<circle cx="520" cy="519.353" r="348.966" stroke="#DCDCDC"/>
<circle cx="520.001" cy="519.356" r="204.27" stroke="#DCDCDC"/>
<circle cx="724.77" cy="520.003" r="25.3385" fill="white" stroke="#DCDCDC"/>
<circle cx="520" cy="315.232" r="25.3385" transform="rotate(-90 520 315.232)" fill="white" stroke="#DCDCDC"/>
<circle cx="375.206" cy="664.791" r="25.3385" transform="rotate(135 375.206 664.791)" fill="white" stroke="#DCDCDC"/>
<circle cx="375.206" cy="375.207" r="25.3385" transform="rotate(-135 375.206 375.207)" fill="white" stroke="#DCDCDC"/>
<circle cx="25.8385" cy="520.003" r="25.3385" fill="white" stroke="#DCDCDC"/>
<circle cx="520" cy="1014.16" r="25.3385" transform="rotate(-90 520 1014.16)" fill="white" stroke="#DCDCDC"/>
<circle cx="869.425" cy="170.574" r="25.3385" transform="rotate(135 869.425 170.574)" fill="white" stroke="#DCDCDC"/>
<circle cx="869.425" cy="869.424" r="25.3385" transform="rotate(-135 869.425 869.424)" fill="white" stroke="#DCDCDC"/>
<circle cx="842.291" cy="655.108" r="25.3385" transform="rotate(22.7444 842.291 655.108)" fill="white" stroke="#DCDCDC"/>
<circle cx="655.111" cy="197.709" r="25.3385" transform="rotate(-67.2556 655.111 197.709)" fill="white" stroke="#DCDCDC"/>
<circle cx="196.568" cy="652.355" r="25.3385" transform="rotate(157.744 196.568 652.355)" fill="white" stroke="#DCDCDC"/>
<circle cx="387.643" cy="196.566" r="25.3385" transform="rotate(-112.256 387.643 196.566)" fill="white" stroke="#DCDCDC"/>
<circle cx="197.71" cy="384.891" r="25.3385" transform="rotate(22.7444 197.71 384.891)" fill="white" stroke="#DCDCDC"/>
<circle cx="384.888" cy="842.287" r="25.3385" transform="rotate(-67.2556 384.888 842.287)" fill="white" stroke="#DCDCDC"/>
<circle cx="843.431" cy="387.646" r="25.3385" transform="rotate(157.744 843.431 387.646)" fill="white" stroke="#DCDCDC"/>
<circle cx="652.357" cy="843.429" r="25.3385" transform="rotate(-112.256 652.357 843.429)" fill="white" stroke="#DCDCDC"/>
<circle cx="1014.16" cy="520.003" r="25.3385" fill="white" stroke="#DCDCDC"/>
<circle cx="520" cy="25.8392" r="25.3385" transform="rotate(-90 520 25.8392)" fill="white" stroke="#DCDCDC"/>
<circle cx="170.575" cy="869.424" r="25.3385" transform="rotate(135 170.575 869.424)" fill="white" stroke="#DCDCDC"/>
<circle cx="170.575" cy="170.574" r="25.3385" transform="rotate(-135 170.575 170.574)" fill="white" stroke="#DCDCDC"/>
<circle cx="315.23" cy="520.003" r="25.3385" fill="white" stroke="#DCDCDC"/>
<circle cx="520" cy="724.767" r="25.3385" transform="rotate(-90 520 724.767)" fill="white" stroke="#DCDCDC"/>
<circle cx="664.794" cy="375.207" r="25.3385" transform="rotate(135 664.794 375.207)" fill="white" stroke="#DCDCDC"/>
<circle cx="664.794" cy="664.791" r="25.3385" transform="rotate(-135 664.794 664.791)" fill="white" stroke="#DCDCDC"/>
</g>
<defs>
<clipPath id="clip0_118_3761">
<rect width="1040" height="1040" fill="white"/>
</clipPath>
</defs>
</svg>
