<svg preserveAspectRatio="none" width="100%" height="100%" overflow="visible" style="display: block;" viewBox="0 0 110.397 28.8748" fill="none" xmlns="http://www.w3.org/2000/svg">
<g id="Group">
<path id="Vector" fill-rule="evenodd" clip-rule="evenodd" d="M10.222 0L17.4481 11.1876L10.222 15.3501L2.99576 11.1876L10.222 0ZM5.20625 10.656L10.222 2.89454L15.2376 10.656L10.222 13.5442L5.20625 10.656Z" fill="var(--fill-0, #64666D)"/>
<path id="Vector_2" d="M10.2149 17.8087L1.83184 12.9803L1.60563 13.3324C-0.973254 17.3284 -0.398004 22.5604 2.98883 25.916C6.97676 29.8609 13.4467 29.8609 17.441 25.916C20.8343 22.5604 21.4096 17.3284 18.8242 13.3324L18.598 12.9803L10.2149 17.8087Z" fill="var(--fill-0, #64666D)"/>
<path id="Vector_3" d="M46.4433 22.0616H36.9097V6.81395H39.8183V19.3718H46.4433V22.0616Z" fill="var(--fill-0, #64666D)"/>
<path id="Vector_4" d="M61.0638 22.0616H58.1552V6.81395H61.0638V22.0616Z" fill="var(--fill-0, #64666D)"/>
<path id="Vector_5" d="M72.8532 22.0616V6.81395H77.8361C78.5924 6.81395 79.2062 6.83953 79.6719 6.89714C80.8742 7.03808 81.9144 7.46075 82.7806 8.1587C83.6599 8.85679 84.3254 9.75329 84.7777 10.8483C85.237 11.9371 85.4628 13.1346 85.4628 14.4409C85.4628 15.7473 85.237 16.9448 84.7777 18.0399C84.3192 19.1286 83.6536 20.0186 82.7806 20.7167C81.9081 21.4148 80.8742 21.8373 79.6719 21.9783C79.2 22.0359 78.5862 22.0616 77.8361 22.0616H72.8532ZM77.8361 19.3527C78.5924 19.3527 79.1482 19.3142 79.504 19.2438C80.1436 19.1157 80.6799 18.8147 81.1069 18.3409C81.5397 17.8606 81.8628 17.2842 82.0696 16.6055C82.2828 15.9202 82.3932 15.1965 82.3932 14.4345C82.3932 13.6725 82.2828 12.9169 82.0633 12.2316C81.85 11.5464 81.5271 10.97 81.0874 10.5025C80.661 10.0352 80.1311 9.7405 79.504 9.62514C79.1482 9.55474 78.5924 9.51637 77.8361 9.51637H75.8067V19.3462H77.8361V19.3527Z" fill="var(--fill-0, #64666D)"/>
<path id="Vector_6" d="M102.932 22.381C101.414 22.381 100.095 22.0543 98.9636 21.3949C97.8395 20.7288 96.9733 19.8003 96.3652 18.5963C95.7647 17.3987 95.4669 16.0091 95.4669 14.4338C95.4669 12.8584 95.7647 11.4687 96.3652 10.2713C96.9733 9.07376 97.8395 8.14523 98.9636 7.48564C100.088 6.81959 101.414 6.49303 102.932 6.49303C104.451 6.49303 105.77 6.82605 106.901 7.48564C108.026 8.14523 108.892 9.07376 109.487 10.2713C110.094 11.4687 110.397 12.8584 110.397 14.4338C110.397 16.0091 110.094 17.3987 109.487 18.5963C108.885 19.7938 108.026 20.7288 106.901 21.3949C105.776 22.0543 104.451 22.381 102.932 22.381ZM103.016 19.6721C103.96 19.6721 104.748 19.4545 105.389 19.0253C106.028 18.5963 106.513 17.9879 106.83 17.2066C107.153 16.4253 107.308 15.5033 107.308 14.4403C107.308 12.8008 106.933 11.52 106.177 10.5978C105.421 9.67574 104.309 9.20824 102.842 9.20824C101.898 9.20824 101.11 9.42604 100.47 9.85504C99.8297 10.284 99.3452 10.8925 99.0287 11.6738C98.705 12.455 98.5504 13.3771 98.5504 14.4403C98.5504 16.0795 98.9252 17.3603 99.6816 18.2826C100.437 19.2046 101.549 19.6721 103.016 19.6721Z" fill="var(--fill-0, #64666D)"/>
</g>
</svg>
