<svg preserveAspectRatio="none" width="100%" height="100%" overflow="visible" style="display: block;" viewBox="0 0 124.002 24.75" fill="none" xmlns="http://www.w3.org/2000/svg">
<g id="Group">
<path id="Vector" d="M17.0482 6.24497C15.3094 3.85818 12.5792 2.32031 9.5094 2.32031C6.84898 2.32031 4.44379 3.47523 2.71776 5.33679H10.6468V22.3586C10.7825 22.3414 10.9172 22.3213 11.0511 22.2982L17.0482 6.24497Z" fill="var(--fill-0, #64666D)"/>
<path id="Vector_2" d="M5.37887 21.4339V10.4474L2.23468 18.8504C3.09444 19.9291 4.1648 20.8139 5.37887 21.4339Z" fill="var(--fill-0, #64666D)"/>
<path id="Vector_3" d="M11.0518 22.2982C15.5709 21.5193 19.0203 17.373 19.0203 12.3749C19.0203 10.0676 18.2852 7.94173 17.049 6.24484L11.0518 22.2982Z" fill="var(--fill-0, white)" fill-opacity="0.1"/>
<path id="Vector_4" d="M10.6475 22.3586V5.33679H2.71859C1.03692 7.15041 0 9.63476 0 12.3751C0 14.8419 0.840145 17.101 2.2344 18.8504L5.37859 10.4474V21.434C6.62803 22.072 8.02961 22.4298 9.51023 22.4298C9.89506 22.4298 10.2745 22.4056 10.6475 22.3586Z" fill="var(--fill-0, white)" fill-opacity="0.1"/>
<path id="Vector_5" d="M55.1424 5.4747C54.3208 5.05367 53.3665 4.84302 52.2794 4.84302C51.3915 4.84302 50.57 4.99221 49.8065 5.30805C49.0431 5.61509 48.3875 6.03625 47.8315 6.5802C47.2756 7.11535 46.8606 7.75583 46.6035 8.49283L49.2007 9.8263C49.4413 9.21223 49.8314 8.71214 50.3543 8.31737C50.877 7.92261 51.4828 7.72956 52.1632 7.72956C52.8935 7.72956 53.4744 7.93127 53.9143 8.33484C54.3541 8.7384 54.5698 9.23849 54.5698 9.83524V10.2913L50.6612 10.967C49.624 11.1423 48.7692 11.4319 48.0888 11.8356C47.4084 12.2478 46.9021 12.7567 46.5702 13.3621C46.2383 13.9674 46.0723 14.6605 46.0723 15.4239C46.0723 16.1872 46.2548 16.9329 46.6284 17.5383C47.0017 18.1435 47.5328 18.6087 48.2133 18.9333C48.902 19.2578 49.7069 19.4246 50.628 19.4246C51.3583 19.4246 52.0138 19.3193 52.6031 19.1175C53.1923 18.9157 53.7234 18.5999 54.2047 18.1963C54.4038 18.0295 54.5781 17.8365 54.7523 17.6348V19.1175H57.7646V9.81764C57.7646 8.84372 57.5323 7.98394 57.0759 7.22947C56.6112 6.47487 55.9722 5.89586 55.1506 5.4747H55.1424ZM54.5615 13.441C54.5615 14.0552 54.4204 14.6255 54.1465 15.1607C53.8727 15.6871 53.4827 16.1083 52.9681 16.4065C52.462 16.7047 51.8729 16.8539 51.2089 16.8539C50.6945 16.8539 50.2547 16.7135 49.9145 16.4329C49.566 16.1521 49.3916 15.766 49.3916 15.2922C49.3916 14.8185 49.5409 14.3974 49.8563 14.0991C50.1633 13.8007 50.628 13.5902 51.2587 13.4674L54.5532 12.8444V13.441H54.5615Z" fill="var(--fill-0, #64666D)"/>
<path id="Vector_6" d="M60.3546 19.1088H63.5578V8.15072H67.7733V5.159H60.3546V19.1088Z" fill="var(--fill-0, #64666D)"/>
<path id="Vector_7" d="M83.5244 8.15072H85.6071V19.1088H88.785V5.159H83.5244V8.15072Z" fill="var(--fill-0, #64666D)"/>
<path id="Vector_8" d="M88.7831 0H85.6053V3.58835H88.7831V0Z" fill="var(--fill-0, #64666D)"/>
<path id="Vector_9" d="M100.74 5.50976C99.9856 5.06234 99.1304 4.84302 98.1597 4.84302C97.1888 4.84302 96.4002 5.06234 95.695 5.4923C95.1559 5.82574 94.7323 6.29062 94.425 6.86977V5.15006H91.4214V19.1H94.6248V10.9231C94.6248 10.3089 94.741 9.78244 94.9649 9.33501C95.1888 8.88759 95.5041 8.54549 95.9109 8.30857C96.3176 8.07166 96.7741 7.94887 97.2964 7.94887C97.8195 7.94887 98.2759 8.07166 98.6827 8.30857C99.0895 8.54549 99.4047 8.88759 99.6285 9.33501C99.8524 9.78244 99.9687 10.3089 99.9687 10.9231V19.1H103.147V10.1335C103.147 9.08944 102.94 8.16819 102.516 7.37853C102.093 6.5802 101.512 5.96599 100.757 5.51856L100.74 5.50976Z" fill="var(--fill-0, #64666D)"/>
<path id="Vector_10" d="M108.815 0H105.612V19.1086H110.541V16.152H108.815V0Z" fill="var(--fill-0, #64666D)"/>
<path id="Vector_11" d="M120.559 5.159L117.156 14.7746L113.737 5.159H110.319L115.464 18.9069L113.447 24.2324H116.866L124.002 5.159H120.559Z" fill="var(--fill-0, #64666D)"/>
<path id="Vector_12" d="M38.5046 5.159L34.2724 16.4854V5.159H28.6296L23.4099 19.1088H26.8537L31.0942 7.77343V19.1088H36.737L40.9692 7.77343V19.1088H44.1476V5.159H38.5046Z" fill="var(--fill-0, #64666D)"/>
<path id="Vector_13" d="M78.7334 6.79071C78.3186 6.25556 77.8284 5.8256 77.2812 5.50096C76.5344 5.06234 75.6711 4.85182 74.6835 4.85182C73.4721 4.85182 72.385 5.15006 71.4307 5.73788C70.4765 6.32569 69.7213 7.13295 69.1653 8.15939C68.6093 9.18596 68.3272 10.3526 68.3272 11.6688C68.3272 12.9848 68.6093 14.1428 69.1653 15.1782C69.7213 16.2221 70.4848 17.0382 71.4556 17.6436C71.5054 17.6698 71.5552 17.6961 71.5967 17.7225C72.5344 18.2665 73.5716 18.5472 74.7251 18.5472C75.7129 18.5472 76.5841 18.3366 77.331 17.9068C77.7378 17.6786 78.0778 17.3715 78.3932 17.0206C78.4429 16.9679 78.5007 16.9154 78.5504 16.8539V18.4155C78.5504 18.8805 78.4846 19.2929 78.3514 19.6614C77.8035 20.8284 76.5761 21.6441 75.14 21.6617C75.0485 21.6617 74.9659 21.6531 74.8744 21.6441C74.783 21.6441 74.6835 21.6267 74.5921 21.6179C73.3309 21.4511 72.2771 20.6704 71.8042 19.5911L69.157 20.9511C69.4308 21.6531 69.8292 22.2758 70.3685 22.8111C70.9743 23.4165 71.6963 23.8902 72.5427 24.2323C73.3806 24.5746 74.2936 24.75 75.2812 24.75C76.5424 24.75 77.6543 24.478 78.617 23.9253C79.5797 23.3813 80.3428 22.6269 80.8995 21.6706C81.4554 20.7142 81.7372 19.6263 81.7372 18.4155V5.15886H78.7334V6.79071ZM78.1276 13.6429C77.8373 14.2043 77.4385 14.6517 76.9243 14.9676C76.7831 15.0554 76.6338 15.1255 76.4846 15.1869C76.0778 15.3537 75.6382 15.4414 75.14 15.4414C74.6425 15.4414 74.1861 15.3537 73.7706 15.1782C73.6213 15.1167 73.4721 15.0378 73.3396 14.9589C72.8166 14.6343 72.4016 14.1867 72.1029 13.6253C71.8042 13.0637 71.6549 12.4233 71.6549 11.7039C71.6549 10.9845 71.8042 10.344 72.1029 9.78244C72.4016 9.22089 72.8166 8.77346 73.3558 8.44896C73.8868 8.12432 74.4846 7.95767 75.148 7.95767C75.8124 7.95767 76.3931 8.12432 76.9074 8.44896C77.4136 8.77346 77.8204 9.22089 78.1189 9.78244C78.418 10.344 78.5673 10.9845 78.5673 11.7039C78.5673 12.4233 78.4261 13.09 78.1276 13.6515V13.6429Z" fill="var(--fill-0, #64666D)"/>
</g>
</svg>
