<svg preserveAspectRatio="none" width="100%" height="100%" overflow="visible" style="display: block;" viewBox="0 0 30.4 30.25" fill="none" xmlns="http://www.w3.org/2000/svg">
<g id="Group">
<path id="Vector" d="M29.1222 18.3289L29.0838 18.369C29.0659 18.3876 29.0478 18.4059 29.0294 18.424L18.5012 28.8835C16.6672 30.7055 13.6937 30.7055 11.8596 28.8835L8.95225 25.9952C8.74608 25.7913 8.74567 25.4596 8.95087 25.2548C9.01125 25.1944 9.08546 25.1497 9.16712 25.1244C12.2834 24.1671 14.8154 23.0622 16.7633 21.8096C21.402 18.8264 25.5216 17.6661 29.1222 18.3289ZM26.9151 9.72497C30.8021 10.9438 30.3485 13.7892 30.4 14.9109C26.143 12.6897 21.0219 13.5039 15.0363 17.3532C10.5751 20.2223 6.83793 21.4052 3.82515 20.9019C0.812509 20.3985 0.134727 16.7373 0 15.7644C3.31042 17.4301 7.74703 16.474 13.3094 12.8968C18.4927 9.5634 23.028 8.50617 26.9151 9.72497ZM18.5012 1.36652L21.233 4.08012C21.4388 4.28441 21.439 4.61613 21.2338 4.82089C21.1606 4.89396 21.0672 4.94384 20.9656 4.96422C17.0109 5.75699 13.848 6.9157 11.4772 8.44044C7.41456 11.0532 3.95241 12.2676 1.09094 12.0836L11.8596 1.36652C13.6937 -0.455507 16.6672 -0.455507 18.5012 1.36652Z" fill="var(--fill-0, #64666D)"/>
</g>
</svg>
