<svg preserveAspectRatio="none" width="100%" height="100%" overflow="visible" style="display: block;" viewBox="0 0 66.5388 21.1601" fill="none" xmlns="http://www.w3.org/2000/svg">
<path id="Vector" d="M16.6441 19.6091V0H19.3428V18.4395H29.9024L29.8427 0.0197862L32.6044 0V19.6091C32.6044 20.4664 31.915 21.1601 31.0634 21.1601H18.1885C17.9848 21.159 17.7834 21.1182 17.5958 21.0396C17.4081 20.961 17.2379 20.8465 17.0947 20.7025C16.9516 20.5584 16.8384 20.3876 16.7617 20.2001C16.6849 20.0124 16.6461 19.8116 16.6475 19.6091H16.6441ZM52.9558 19.6091V0H55.6534V18.4395H66.5388V21.1601H54.4957C54.2922 21.159 54.0907 21.1182 53.9031 21.0396C53.7154 20.961 53.5452 20.8465 53.402 20.7025C53.2589 20.5584 53.1457 20.3876 53.069 20.2001C52.9922 20.0124 52.9545 19.8116 52.9558 19.6091ZM0 21.1601H2.69869V11.9706H12.8694V9.24888H2.69869V2.72052H12.7037C12.8499 2.72011 12.9931 2.67831 13.1165 2.60007C13.2399 2.52183 13.3384 2.41046 13.4007 2.27869L14.4779 0H1.54322C0.691465 0 0 0.693605 0 1.551V21.1601ZM35.5395 1.551C35.5395 0.693605 36.2277 0 37.0794 0H50.0152L48.9403 2.27869C48.8786 2.41087 48.7803 2.52279 48.6567 2.60103C48.5332 2.67941 48.3898 2.72093 48.2433 2.72052H38.2382V9.24998H48.409V11.9706H38.2382V18.4395H50.0141V21.1601H37.0794C36.8759 21.1589 36.6747 21.1179 36.4872 21.0392C36.2997 20.9607 36.1294 20.846 35.9864 20.7021C35.8435 20.558 35.7304 20.3873 35.6537 20.1998C35.577 20.0122 35.5382 19.8115 35.5395 19.6091V1.551Z" fill="var(--fill-0, #64666D)"/>
</svg>
