<svg preserveAspectRatio="none" width="100%" height="100%" overflow="visible" style="display: block;" viewBox="0 0 125.745 23.375" fill="none" xmlns="http://www.w3.org/2000/svg">
<path id="Vector" d="M21.0935 14.2785C25.6062 15.0932 28.6758 16.6968 28.6758 18.5422C28.6758 21.2128 22.256 23.375 14.3379 23.375C6.41979 23.375 0 21.2116 0 18.5422C0 16.6968 3.07068 15.0932 7.58231 14.2785C9.54311 14.7764 11.8586 15.0628 14.3379 15.0628C16.8171 15.0628 19.1327 14.7753 21.0935 14.2785ZM19.3656 6.4515C23.1987 7.07561 25.8392 8.38819 25.8392 9.90866C25.8392 12.03 20.6896 13.7503 14.3379 13.7503C7.98622 13.7503 2.83646 12.03 2.83646 9.90866C2.83646 8.38929 5.47711 7.07561 9.31 6.4515C10.7833 6.81725 12.5014 7.02652 14.3379 7.02652C16.1743 7.02652 17.8925 6.81615 19.3656 6.4515ZM14.3904 0C19.147 0 23.004 1.30199 23.004 2.90909C23.004 4.51495 19.147 5.81694 14.3904 5.81694C9.6339 5.81694 5.77697 4.51495 5.77697 2.90909C5.77697 1.30199 9.6339 0 14.3904 0ZM46.9553 19.2727C48.1514 19.2727 49.1442 19.0916 49.9339 18.728C50.7225 18.3657 51.3141 17.8679 51.706 17.2378C52.1016 16.5946 52.3053 15.8557 52.2938 15.1049C52.2938 14.3276 52.1313 13.6661 51.8051 13.118C51.5042 12.5954 51.0714 12.1568 50.5482 11.8441C50.0651 11.5516 49.5154 11.381 48.9483 11.3473V11.1966C49.4419 11.0837 49.9104 10.8837 50.3307 10.6063C50.7429 10.333 51.0715 9.97521 51.3165 9.53466C51.5602 9.09398 51.6832 8.56226 51.6832 7.93925C51.6832 7.1819 51.4957 6.50526 51.1216 5.9081C50.7477 5.30956 50.1849 4.83739 49.4334 4.49144C48.683 4.14549 47.7415 3.97251 46.6112 3.97251H40.6239V19.2715L46.9553 19.2727ZM46.26 10.4802H43.4569V6.25982H46.3209C47.1573 6.25982 47.7869 6.4515 48.2111 6.83485C48.6364 7.2182 48.8491 7.70674 48.8491 8.29922C48.8491 8.74802 48.7356 9.13495 48.5098 9.46096C48.2828 9.78821 47.9733 10.0385 47.5814 10.2161C47.1659 10.3973 46.7149 10.4874 46.26 10.4802ZM46.5048 16.9573H43.458V12.4752H46.5814C47.1668 12.4752 47.6711 12.5804 48.0928 12.7931C48.5158 13.0035 48.8419 13.2934 49.0714 13.6591C49.2995 14.025 49.4142 14.4352 49.4142 14.8886C49.4142 15.4964 49.1872 15.9932 48.7308 16.3789C48.2756 16.7645 47.5336 16.9573 46.5048 16.9573ZM57.4172 19.5052C58.0278 19.5052 58.5606 19.4223 59.017 19.2551C59.4722 19.088 59.8522 18.8671 60.1546 18.5901C60.458 18.3143 60.6922 18.0162 60.8619 17.6972H60.9527V19.2738H63.6112V11.594C63.6112 10.832 63.469 10.1973 63.187 9.68894C62.9232 9.20136 62.5382 8.78666 62.0674 8.48279C61.5981 8.18373 61.0789 7.9673 60.5333 7.84341C59.9802 7.71485 59.4135 7.64968 58.845 7.64954C58.0253 7.64954 57.2762 7.76751 56.5987 8.0047C55.9505 8.22387 55.3628 8.5866 54.8818 9.06482C54.4007 9.55721 54.0538 10.1602 53.8734 10.818L56.4542 11.1756C56.5915 10.7818 56.858 10.4404 57.2523 10.1518C57.6466 9.86301 58.1831 9.71932 58.8605 9.71932C59.5022 9.71932 59.9932 9.8736 60.3338 10.1822C60.6755 10.4907 60.8463 10.9267 60.8463 11.4888V11.5343C60.8463 11.7927 60.7483 11.9831 60.5524 12.1059C60.3564 12.2275 60.0446 12.3163 59.6169 12.3747C59.1891 12.4321 58.6311 12.495 57.9441 12.5653C57.3866 12.6228 56.834 12.7188 56.2904 12.8527C55.7857 12.9734 55.3026 13.1685 54.8579 13.4313C54.4405 13.6803 54.096 14.0305 53.8578 14.4481C53.6129 14.8712 53.491 15.4065 53.491 16.054C53.491 16.8054 53.6631 17.4388 54.0071 17.952C54.3501 18.4639 54.8196 18.8519 55.4123 19.1126C56.005 19.3744 56.674 19.5052 57.4172 19.5052ZM58.1341 17.5185C57.5594 17.5185 57.0862 17.391 56.7147 17.1373C56.3431 16.8825 56.1567 16.5062 56.1567 16.0095C56.1567 15.66 56.2511 15.3748 56.4398 15.154C56.6275 14.9319 56.8843 14.759 57.2105 14.6338C57.5675 14.5018 57.9394 14.4115 58.3181 14.365L58.9669 14.2762C59.2178 14.2413 59.4686 14.2016 59.7232 14.1559C59.9777 14.1115 60.2083 14.0588 60.415 13.9993C60.6205 13.9396 60.7674 13.8754 60.8535 13.8053V15.1576C60.8535 15.5805 60.7424 15.9721 60.5213 16.3298C60.2922 16.6958 59.9661 16.9943 59.5774 17.1936C59.1711 17.4097 58.6885 17.5185 58.1341 17.5185ZM68.5649 19.2738V3.97375H65.8012V19.2727H68.5661L68.5649 19.2738ZM74.1853 19.5052C74.7959 19.5052 75.33 19.4223 75.7851 19.2551C76.2404 19.088 76.6203 18.8671 76.9226 18.5901C77.2261 18.3143 77.4616 18.0162 77.63 17.6972H77.7208V19.2738H80.3793V11.594C80.3793 10.832 80.2371 10.1973 79.955 9.68894C79.6917 9.2015 79.3071 8.7868 78.8367 8.48279C78.3671 8.18359 77.8475 7.96716 77.3014 7.84341C76.7483 7.71485 76.1817 7.64968 75.6131 7.64954C74.7935 7.64954 74.0456 7.76751 73.3668 8.0047C72.7186 8.22387 72.1309 8.5866 71.6499 9.06482C71.1688 9.55721 70.8219 10.1602 70.6415 10.818L73.2223 11.1756C73.3596 10.7818 73.6262 10.4404 74.0204 10.1518C74.4148 9.86301 74.9525 9.71932 75.6287 9.71932C76.2703 9.71932 76.7614 9.8736 77.1031 10.1822C77.4436 10.4907 77.6145 10.9267 77.6145 11.4888V11.5343C77.6145 11.7927 77.5164 11.9831 77.3205 12.1059C77.1245 12.2275 76.8128 12.3163 76.385 12.3747C75.9572 12.4321 75.3992 12.495 74.7123 12.5653C74.1547 12.6228 73.6021 12.7188 73.0585 12.8527C72.5539 12.9734 72.0708 13.1685 71.626 13.4313C71.2087 13.6803 70.8642 14.0305 70.626 14.4481C70.3822 14.8712 70.2591 15.4065 70.2591 16.054C70.2591 16.8054 70.4311 17.4388 70.7754 17.952C71.1182 18.4639 71.5877 18.8519 72.1804 19.1126C72.773 19.3744 73.4421 19.5052 74.1853 19.5052ZM74.9021 17.5185C74.3287 17.5185 73.8543 17.391 73.4827 17.1373C73.1112 16.8825 72.9248 16.5062 72.9248 16.0095C72.9248 15.66 73.0191 15.3748 73.2079 15.154C73.3956 14.9319 73.6524 14.759 73.9785 14.6338C74.3356 14.5018 74.7075 14.4115 75.0862 14.365L75.735 14.2762C75.9859 14.2413 76.2368 14.2016 76.4914 14.1559C76.7458 14.1115 76.9764 14.0588 77.1831 13.9993C77.3886 13.9396 77.5356 13.8754 77.6216 13.8053V15.1576C77.6216 15.5805 77.5117 15.9721 77.2895 16.3298C77.0603 16.6958 76.7342 16.9943 76.3456 17.1936C75.9393 17.4097 75.4565 17.5185 74.9021 17.5185ZM85.3329 19.2738V12.55C85.3329 11.9972 85.4406 11.5262 85.6508 11.1382C85.8623 10.7502 86.155 10.4521 86.529 10.2453C86.9229 10.0338 87.3666 9.92709 87.8158 9.93561C88.5291 9.93561 89.0871 10.1518 89.4922 10.5853C89.8972 11.0177 90.0991 11.6186 90.0991 12.3853V19.2738H92.864V11.9668C92.8699 11.0505 92.7051 10.2722 92.3717 9.62926C92.0371 8.98659 91.5699 8.49558 90.9666 8.15664C90.3632 7.8177 89.6571 7.64954 88.8469 7.64954C87.9711 7.64954 87.2364 7.83888 86.6437 8.21741C86.0606 8.5844 85.6085 9.11941 85.3498 9.74847H85.2111V7.799H82.5695V19.2738H85.3329ZM100.203 19.4982C101.185 19.4982 102.04 19.3229 102.768 18.9711C103.468 18.6442 104.064 18.1382 104.494 17.5068C104.917 16.8814 105.161 16.1627 105.228 15.3516H102.585C102.518 15.7312 102.364 16.0913 102.135 16.4046C101.916 16.6944 101.645 16.9141 101.322 17.0661C100.997 17.218 100.633 17.2939 100.225 17.2939C99.6494 17.2939 99.1499 17.1432 98.7246 16.8417C98.2992 16.5402 97.9694 16.11 97.7353 15.549C97.5011 14.9891 97.3839 14.3184 97.3839 13.5365C97.3839 12.7651 97.5023 12.1023 97.7389 11.5496C97.9755 10.9967 98.3075 10.5713 98.7353 10.2756C99.163 9.97879 99.6602 9.83152 100.225 9.83152C100.892 9.83152 101.425 10.0162 101.825 10.3879C102.224 10.7583 102.477 11.22 102.585 11.7728H105.228C105.166 10.9465 104.917 10.223 104.479 9.60245C104.034 8.9771 103.426 8.47949 102.719 8.16131C101.983 7.82004 101.139 7.64954 100.186 7.64954C99.0411 7.64954 98.0495 7.89951 97.2119 8.39974C96.3731 8.90148 95.6987 9.62734 95.2679 10.4919C94.8103 11.386 94.5809 12.4156 94.5809 13.5809C94.5809 14.7414 94.8067 15.7664 95.2572 16.6547C95.7076 17.544 96.3517 18.2407 97.1892 18.7432C98.0267 19.2459 99.0316 19.4982 100.203 19.4982ZM112.099 19.4982C113.011 19.4982 113.82 19.3626 114.528 19.0904C115.236 18.8192 115.818 18.4359 116.273 17.9403C116.729 17.4448 117.038 16.8627 117.201 16.1954L114.62 15.9114C114.497 16.2352 114.317 16.5074 114.078 16.7259C113.839 16.9456 113.556 17.1116 113.23 17.2227C112.878 17.3389 112.509 17.3958 112.138 17.391C111.537 17.391 111.012 17.2659 110.564 17.0136C110.113 16.7588 109.75 16.3794 109.519 15.9231C109.268 15.4473 109.143 14.8759 109.143 14.2084L109.145 14.2762H117.316V13.4465C117.316 12.4414 117.173 11.573 116.888 10.8426C116.603 10.1133 116.212 9.51239 115.716 9.03911C115.23 8.57244 114.646 8.21439 114.005 7.98958C113.347 7.76064 112.653 7.64555 111.955 7.64954C110.834 7.64954 109.859 7.89951 109.029 8.39974C108.195 8.90478 107.524 9.63009 107.093 10.4919C106.632 11.386 106.402 12.4226 106.402 13.603C106.402 14.8034 106.631 15.8459 107.09 16.7295C107.547 17.6142 108.203 18.2956 109.056 18.7771C109.909 19.2576 110.924 19.4982 112.099 19.4982ZM109.157 12.3643C109.192 11.9482 109.31 11.56 109.507 11.2013C109.743 10.7712 110.075 10.4217 110.503 10.1552C110.95 9.8835 111.467 9.74463 111.993 9.75549C112.522 9.75549 112.987 9.8725 113.386 10.1061C113.787 10.3411 114.098 10.6613 114.322 11.0668C114.546 11.4735 114.66 11.9353 114.666 12.453H109.151L109.157 12.3643ZM121.821 19.2738V12.5278C121.821 12.0392 121.935 11.6091 122.163 11.2353C122.393 10.8611 122.707 10.5691 123.107 10.3575C123.524 10.1416 123.99 10.0321 124.462 10.0396C124.697 10.0396 124.94 10.0559 125.191 10.0887C125.444 10.1214 125.628 10.1564 125.745 10.1974V7.70907C125.588 7.68047 125.428 7.66177 125.267 7.65297C125.096 7.64129 124.925 7.63496 124.753 7.63428C124.081 7.63428 123.484 7.81536 122.962 8.17657C122.439 8.53655 122.073 9.04846 121.859 9.71108H121.736V7.799H119.056V19.2738H121.821Z" fill="var(--fill-0, #64666D)"/>
</svg>
