<svg width="152" height="44" viewBox="0 0 152 44" fill="none" xmlns="http://www.w3.org/2000/svg">
<mask id="mask0_697_896" style="mask-type:luminance" maskUnits="userSpaceOnUse" x="25" y="9" width="103" height="27">
<path d="M127.149 9H25V35.8507H127.149V9Z" fill="white"/>
</mask>
<g mask="url(#mask0_697_896)">
<mask id="mask1_697_896" style="mask-type:luminance" maskUnits="userSpaceOnUse" x="25" y="9" width="103" height="27">
<path d="M127.149 9H25V35.8507H127.149V9Z" fill="white"/>
</mask>
<g mask="url(#mask1_697_896)">
<path fill-rule="evenodd" clip-rule="evenodd" d="M34.4609 9L41.1472 19.4032L34.4609 23.274L27.7744 19.4032L34.4609 9ZM29.8198 18.9089L34.4609 11.6916L39.1018 18.9089L34.4609 21.5946L29.8198 18.9089Z" fill="#64666D"/>
<path d="M34.4544 25.5603L26.6975 21.0703L26.4881 21.3978C24.1019 25.1136 24.6342 29.9789 27.768 33.0992C31.4581 36.7675 37.4448 36.7675 41.1407 33.0992C44.2806 29.9789 44.8129 25.1136 42.4206 21.3978L42.2113 21.0703L34.4544 25.5603Z" fill="#64666D"/>
<path d="M67.9768 29.5151H59.1553V15.3364H61.8466V27.0139H67.9768V29.5151Z" fill="#64666D"/>
<path d="M81.5053 29.5151H78.814V15.3364H81.5053V29.5151Z" fill="#64666D"/>
<path d="M92.4141 29.5151V15.3364H97.0248C97.7246 15.3364 98.2926 15.3602 98.7235 15.4138C99.836 15.5448 100.799 15.9379 101.6 16.5869C102.414 17.2361 103.029 18.0697 103.448 19.088C103.873 20.1004 104.082 21.2139 104.082 22.4287C104.082 23.6435 103.873 24.7571 103.448 25.7753C103.024 26.7877 102.408 27.6154 101.6 28.2645C100.793 28.9137 99.836 29.3066 98.7235 29.4377C98.2868 29.4912 97.7189 29.5151 97.0248 29.5151H92.4141ZM97.0248 26.9962C97.7246 26.9962 98.2389 26.9604 98.5681 26.8949C99.16 26.7757 99.6562 26.4958 100.051 26.0552C100.452 25.6086 100.751 25.0726 100.942 24.4415C101.139 23.8042 101.242 23.1313 101.242 22.4227C101.242 21.7141 101.139 21.0115 100.936 20.3743C100.739 19.7371 100.44 19.2011 100.033 18.7664C99.6387 18.3318 99.1483 18.0578 98.5681 17.9505C98.2389 17.8851 97.7246 17.8494 97.0248 17.8494H95.147V26.9901H97.0248V26.9962Z" fill="#64666D"/>
<path d="M120.246 29.8122C118.841 29.8122 117.621 29.5084 116.574 28.8952C115.534 28.2759 114.732 27.4124 114.17 26.2929C113.614 25.1792 113.338 23.8871 113.338 22.4222C113.338 20.9573 113.614 19.665 114.17 18.5514C114.732 17.4379 115.534 16.5745 116.574 15.9611C117.615 15.3418 118.841 15.0381 120.246 15.0381C121.652 15.0381 122.872 15.3478 123.918 15.9611C124.959 16.5745 125.76 17.4379 126.311 18.5514C126.873 19.665 127.154 20.9573 127.154 22.4222C127.154 23.8871 126.873 25.1792 126.311 26.2929C125.755 27.4064 124.959 28.2759 123.918 28.8952C122.877 29.5084 121.652 29.8122 120.246 29.8122ZM120.324 27.2933C121.197 27.2933 121.927 27.0909 122.519 26.6918C123.111 26.2929 123.56 25.7271 123.853 25.0006C124.152 24.2741 124.295 23.4167 124.295 22.4282C124.295 20.9037 123.949 19.7127 123.249 18.8551C122.549 17.9977 121.52 17.5629 120.163 17.5629C119.289 17.5629 118.56 17.7655 117.968 18.1644C117.375 18.5633 116.927 19.1291 116.634 19.8556C116.335 20.5821 116.192 21.4396 116.192 22.4282C116.192 23.9525 116.538 25.1435 117.238 26.0011C117.938 26.8585 118.967 27.2933 120.324 27.2933Z" fill="#64666D"/>
</g>
</g>
</svg>
