<svg preserveAspectRatio="none" width="100%" height="100%" overflow="visible" style="display: block;" viewBox="0 0 21.1514 21.3027" fill="none" xmlns="http://www.w3.org/2000/svg">
<path id="Subtract" d="M21.1514 0V17.626C21.1521 18.2207 20.918 18.7918 20.499 19.2158L19.0801 20.6436C18.661 21.0661 18.0926 21.3027 17.501 21.3027H0V1.41699C0.000101493 0.632876 0.628911 0 1.40723 0H21.1514ZM3.36523 11.1719C3.23133 11.1719 3.107 11.213 3.00391 11.2832C2.96858 11.3069 2.93539 11.3339 2.90527 11.3643C2.8453 11.4246 2.79782 11.4965 2.76562 11.5752C2.73353 11.6535 2.71824 11.7376 2.71875 11.8223V18.5625L2.71973 18.5605V18.5625L10.0576 11.1719H3.36523ZM16.2178 2.73926C16.0821 2.73926 15.9486 2.75719 15.8193 2.79004C15.7712 2.80226 15.7236 2.81641 15.6768 2.83301C15.4479 2.91409 15.2376 3.04525 15.0635 3.2207L8.39551 9.93555H10.6113C10.7118 9.93553 10.8109 9.92444 10.9082 9.90625C10.9295 9.9023 10.9506 9.89737 10.9717 9.89258C11.0926 9.86494 11.2091 9.82364 11.3203 9.76953C11.4859 9.68929 11.638 9.58404 11.7676 9.45312L18.4355 2.73926H16.2178ZM3.42578 2.73926C3.30815 2.74038 3.19248 2.77015 3.08984 2.82715C2.9869 2.88435 2.89951 2.96713 2.83691 3.06641C2.77439 3.16577 2.73835 3.27941 2.73145 3.39648C2.72457 3.51344 2.74744 3.63037 2.79785 3.73633L5.46387 9.41113C5.52508 9.54341 5.61746 9.65922 5.7334 9.74805C5.84915 9.83695 5.98486 9.89671 6.12891 9.92188C6.16479 9.92818 6.2011 9.93165 6.2373 9.93359H6.34863C6.42094 9.92872 6.49293 9.91467 6.5625 9.89258C6.70158 9.84845 6.82783 9.77134 6.93066 9.66797L13.8105 2.73926H3.42578Z" fill="var(--fill-0, #64666D)"/>
</svg>
