<svg preserveAspectRatio="none" width="100%" height="100%" overflow="visible" style="display: block;" viewBox="0 0 92.5708 24.75" fill="none" xmlns="http://www.w3.org/2000/svg">
<g id="Group">
<path id="Vector" d="M32.5024 17.9201L41.4772 6.18337H32.6222V3.88162H44.8276V5.95306L35.8528 17.6903H44.9474V19.9915H32.5024V17.9201Z" fill="var(--fill-0, #64666D)"/>
<path id="Vector_2" d="M46.1425 3.88162H48.7751V6.29791H46.1425V3.88162ZM46.2623 8.48457H48.6553V19.9915H46.2623V8.48457Z" fill="var(--fill-0, #64666D)"/>
<path id="Vector_3" d="M50.0909 8.48499H52.1254L52.3648 9.52078H52.4845C52.8914 9.08339 53.2743 8.48499 54.7584 8.48499H56.9127V10.5564H54.998C53.3228 10.5564 52.4852 11.3619 52.4852 12.95V19.9925H50.0922L50.0909 8.48499Z" fill="var(--fill-0, #64666D)"/>
<path id="Vector_4" d="M68.2796 15.9635C67.897 17.6895 66.365 20.221 62.775 20.221C59.1853 20.221 56.7922 17.8046 56.7922 14.2374C56.7922 10.6703 59.3049 8.25399 62.775 8.25399C66.2453 8.25399 67.897 10.8087 68.2796 12.3963H65.8867C65.5038 11.3607 64.5942 10.3249 62.7757 10.3249C60.7413 10.3249 59.1859 11.8438 59.1859 14.2369C59.1859 16.6299 60.7413 18.1496 62.7757 18.1496C64.6905 18.1496 65.6236 16.8835 65.8867 15.9635H68.2796Z" fill="var(--fill-0, #64666D)"/>
<path id="Vector_5" d="M69.4775 8.48499H71.8704V15.389C71.8704 16.8847 73.091 18.1508 74.7425 18.1508C76.5375 18.1508 77.8541 16.8847 77.8541 15.389V8.48499H80.247V19.9919H78.0929L77.8534 18.8411H77.7338C77.4707 19.0941 77.1834 19.3242 76.8483 19.5313C76.2737 19.8767 75.3884 20.2216 74.2635 20.2216C71.3915 20.2216 69.4768 18.4037 69.4768 15.389L69.4775 8.48499Z" fill="var(--fill-0, #64666D)"/>
<path id="Vector_6" d="M81.7999 3.88162H84.4324V6.29791H81.7999V3.88162ZM81.9196 8.48457H84.3127V19.9915H81.9196V8.48457Z" fill="var(--fill-0, #64666D)"/>
<path id="Vector_7" d="M87.4256 10.6711H85.5108V8.48512H87.4256V5.26336H89.8185V8.48512H92.5708V10.6711H89.8185V17.2297C89.8185 17.6897 90.0581 17.92 90.5364 17.92H92.5708V19.9914H90.0581C88.3587 19.9914 87.4256 19.0708 87.4256 17.5751V10.6711Z" fill="var(--fill-0, #64666D)"/>
<path id="Vector_8" fill-rule="evenodd" clip-rule="evenodd" d="M0 12.3756C0 5.54056 5.64611 0 12.6099 0C19.5751 0 25.2211 5.54056 25.2205 12.375C25.2205 14.7958 24.5119 17.054 23.2879 18.9608C22.9503 19.4864 22.5743 19.9851 22.1623 20.4538L12.6266 11.0964L4.42693 19.1423L3.07302 20.4709C2.65986 20.0032 2.28263 19.5052 1.94505 18.9804C0.71288 17.0698 0 14.8042 0 12.3756ZM21.8423 17.1977L21.9576 16.9712C22.6812 15.5551 23.0639 13.9659 23.0639 12.3756C23.0639 6.71935 18.3744 2.11758 12.6106 2.11758C6.84663 2.11758 2.15785 6.71935 2.15785 12.3756C2.15785 13.9744 2.54379 15.5709 3.27408 16.9925L3.39015 17.2177L12.6266 8.15375L21.8423 17.1977ZM12.6105 24.75C15.75 24.75 18.6219 23.6243 20.8295 21.7612L12.6272 13.7115L4.40938 21.7752C6.6138 23.6305 9.47098 24.75 12.6105 24.75Z" fill="var(--fill-0, #64666D)"/>
</g>
</svg>
